<svg version="1.1" xmlns="http://www.w3.org/2000/svg" xmlns:xlink="http://www.w3.org/1999/xlink"
	 width="224px" height="229px" viewBox="1279.4 148.4 972.7 995.4">
<g>
	<path fill="#EFEFEF" stroke="#DCDCDB" stroke-width="0.25" stroke-miterlimit="10" d="M2251,1133.2c0,5.8-4.7,10.5-10.5,10.5H2037
		c-5.8,0-10.5-4.7-10.5-10.5V976.6c0-5.8,4.7-10.5,10.5-10.5h203.5c5.8,0,10.5,4.7,10.5,10.5V1133.2z"/>
	<g>
		<path fill-rule="evenodd" clip-rule="evenodd" fill="#187FAD" d="M2189.8,1038.3c-4.5,0-8.1,1.2-10.9,1.8l-0.8,6.9
			c1.4-0.7,5.7-1.9,9.3-2c3.6-0.1,5.7,0.7,5,3.7c-10.7,0-17.8,2.2-19.3,9.1c-2.1,11.8,10.9,11.5,16.1,6.4l-0.6,2.8h9.5l4.1-18.8
			C2203.7,1040.2,2196.4,1038.2,2189.8,1038.3z M2190.4,1057.6c-0.5,2.5-2.5,3.6-5,3.7c-2.1,0.1-4-1.8-2.6-3.9
			c1.1-1.9,4-2.3,5.8-2.3c0.7,0,1.6,0,2.3,0C2190.7,1056,2190.6,1056.7,2190.4,1057.6z"/>
		<polygon fill-rule="evenodd" clip-rule="evenodd" fill="#187FAD" points="2210.2,1030.9 2202.3,1067 2211.9,1067 2219.9,1030.9 
			2210.2,1030.9 2210.2,1030.9 		"/>
		<path fill-rule="evenodd" clip-rule="evenodd" fill="#187FAD" d="M2165.8,1031h-17.7l-7.8,36h10.3l2.6-11.9h7.3
			c7.2,0,13.1-4.4,14.7-11.8C2177,1034.8,2170.9,1031,2165.8,1031z M2165.5,1043.3c-0.6,2.7-3.4,4.9-6,4.9h-4.8l2.1-9.9h5.1
			C2164.5,1038.3,2166.1,1040.5,2165.5,1043.3z"/>
		<path fill-rule="evenodd" clip-rule="evenodd" fill="#195A7F" d="M2097.2,1038.3c-4.5,0-8,1.2-10.6,1.8l-0.8,6.9
			c1.3-0.7,5.5-1.9,9.1-2c3.5-0.1,5.6,0.7,5,3.7c-10.5,0-17.6,2.2-19.1,9.1c-2.1,11.8,10.7,11.5,15.8,6.4l-0.6,2.8h9.5l4.1-18.8
			C2111.1,1040.2,2103.8,1038.2,2097.2,1038.3z M2097.9,1057.6c-0.5,2.5-2.6,3.6-5,3.7c-2.1,0.1-3.9-1.8-2.5-3.9
			c1-1.9,4-2.3,5.6-2.3c0.8,0,1.6,0,2.4,0C2098.3,1056,2098.1,1056.7,2097.9,1057.6z"/>
		<polygon fill-rule="evenodd" clip-rule="evenodd" fill="#195A7F" points="2113.6,1038.9 2123,1038.9 2124.6,1055.6 2133.9,1038.9 
			2143.7,1038.9 2121.1,1079 2110.5,1079 2117.4,1067.2 2113.6,1038.9 2113.6,1038.9 		"/>
		<path fill-rule="evenodd" clip-rule="evenodd" fill="#195A7F" d="M2073.6,1031h-17.7l-7.9,36h10.4l2.5-11.9h7.4
			c7.1,0,13.1-4.4,14.6-11.8C2084.9,1034.8,2078.8,1031,2073.6,1031z M2073.3,1043.3c-0.6,2.7-3.3,4.9-5.9,4.9h-4.9l2.2-9.9h5.1
			C2072.3,1038.3,2074,1040.5,2073.3,1043.3z"/>
		<path fill="#195A7F" d="M2222,1035.6v-4.3h-1.6v-0.6h3.8v0.6h-1.6v4.3H2222z"/>
		<path fill="#195A7F" d="M2224.9,1035.6v-4.8h1l1.1,3.4c0.1,0.3,0.2,0.6,0.2,0.7c0.1-0.2,0.1-0.4,0.3-0.8l1.2-3.4h0.9v4.8h-0.6v-4
			l-1.4,4h-0.6l-1.4-4.1v4.1H2224.9z"/>
	</g>
	<path fill="#27245E" d="M1751.3,315.6c0,5.8-4.7,10.5-10.5,10.5h-203.5c-5.8,0-10.5-4.7-10.5-10.5V159c0-5.8,4.7-10.5,10.5-10.5
		h203.5c5.8,0,10.5,4.7,10.5,10.5V315.6z"/>
	<radialGradient id="SVGID_1_" cx="1889.2485" cy="237.3169" r="101.1866" gradientUnits="userSpaceOnUse">
		<stop  offset="0" style="stop-color:#2EA6D0"/>
		<stop  offset="0.3158" style="stop-color:#2B9ECC"/>
		<stop  offset="0.8111" style="stop-color:#2187C1"/>
		<stop  offset="1" style="stop-color:#1D7DBC"/>
	</radialGradient>
	<path fill="url(#SVGID_1_)" d="M2001.5,315.6c0,5.8-4.7,10.5-10.5,10.5h-203.5c-5.8,0-10.5-4.7-10.5-10.5V159
		c0-5.8,4.7-10.5,10.5-10.5H1991c5.8,0,10.5,4.7,10.5,10.5V315.6z"/>
	<path fill="#EFEFEF" stroke="#DCDCDB" stroke-width="0.25" stroke-miterlimit="10" d="M2251.6,315.6c0,5.8-4.7,10.5-10.5,10.5
		h-203.5c-5.8,0-10.5-4.7-10.5-10.5V159c0-5.8,4.7-10.5,10.5-10.5h203.5c5.8,0,10.5,4.7,10.5,10.5V315.6z"/>
	<path fill="#2A252E" stroke="#383435" stroke-width="0.2215" stroke-miterlimit="22.9256" d="M1504,723.3c0,5.8-4.7,10.5-10.5,10.5
		H1290c-5.8,0-10.5-4.7-10.5-10.5V566.7c0-5.8,4.7-10.5,10.5-10.5h203.5c5.8,0,10.5,4.7,10.5,10.5V723.3z"/>
	<path fill="#FBED1F" d="M1752.6,723.3c0,5.8-4.7,10.5-10.5,10.5h-203.5c-5.8,0-10.5-4.7-10.5-10.5V566.7c0-5.8,4.7-10.5,10.5-10.5
		h203.5c5.8,0,10.5,4.7,10.5,10.5V723.3z"/>
	<linearGradient id="SVGID_2_" gradientUnits="userSpaceOnUse" x1="1776.4009" y1="645.0156" x2="2000.8618" y2="645.0156">
		<stop  offset="0" style="stop-color:#951C1F"/>
		<stop  offset="1" style="stop-color:#951C1F"/>
	</linearGradient>
	<path fill="url(#SVGID_2_)" d="M2000.9,723.3c0,5.8-4.7,10.5-10.5,10.5h-203.5c-5.8,0-10.5-4.7-10.5-10.5V566.7
		c0-5.8,4.7-10.5,10.5-10.5h203.5c5.8,0,10.5,4.7,10.5,10.5V723.3z"/>
	<path fill="#DCECCD" d="M2252.1,723.3c0,5.8-4.7,10.5-10.5,10.5h-203.5c-5.8,0-10.5-4.7-10.5-10.5V566.7c0-5.8,4.7-10.5,10.5-10.5
		h203.5c5.8,0,10.5,4.7,10.5,10.5V723.3z"/>
	<path fill="#BEE7FA" d="M2251,926.5c0,5.8-4.7,10.5-10.5,10.5H2037c-5.8,0-10.5-4.7-10.5-10.5V769.9c0-5.8,4.7-10.5,10.5-10.5
		h203.5c5.8,0,10.5,4.7,10.5,10.5V926.5z"/>
	<path fill="#0059A0" d="M1504.7,315.6c0,5.8-4.7,10.5-10.5,10.5h-203.5c-5.8,0-10.5-4.7-10.5-10.5V159c0-5.8,4.7-10.5,10.5-10.5
		h203.5c5.8,0,10.5,4.7,10.5,10.5V315.6z"/>
	<path fill="#E67625" d="M1504.7,518.3c0,5.8-4.7,10.5-10.5,10.5h-203.5c-5.8,0-10.5-4.7-10.5-10.5V361.7c0-5.8,4.7-10.5,10.5-10.5
		h203.5c5.8,0,10.5,4.7,10.5,10.5V518.3z"/>
	<path fill="#CF0A2C" d="M1752.1,519.3c0,5.8-4.7,10.5-10.5,10.5h-203.5c-5.8,0-10.5-4.7-10.5-10.5V362.7c0-5.8,4.7-10.5,10.5-10.5
		h203.5c5.8,0,10.5,4.7,10.5,10.5V519.3z"/>
	<path fill="#FBED1F" d="M2000.7,519.3c0,5.8-4.7,10.5-10.5,10.5h-203.5c-5.8,0-10.5-4.7-10.5-10.5V362.7c0-5.8,4.7-10.5,10.5-10.5
		h203.5c5.8,0,10.5,4.7,10.5,10.5V519.3z"/>
	<path fill="#E2F3FC" d="M2250.9,519.3c0,5.8-4.7,10.5-10.5,10.5h-203.5c-5.8,0-10.5-4.7-10.5-10.5V362.7c0-5.8,4.7-10.5,10.5-10.5
		h203.5c5.8,0,10.5,4.7,10.5,10.5V519.3z"/>
	<path fill="#EFEFEF" stroke="#DCDCDB" stroke-width="0.25" stroke-miterlimit="10" d="M1751.6,927c0,5.8-4.7,10.5-10.5,10.5h-203.5
		c-5.8,0-10.5-4.7-10.5-10.5V770.4c0-5.8,4.7-10.5,10.5-10.5h203.5c5.8,0,10.5,4.7,10.5,10.5V927z"/>
	<path fill="#EFEFEF" stroke="#DCDCDB" stroke-width="0.25" stroke-miterlimit="10" d="M2000.7,927c0,5.8-4.7,10.5-10.5,10.5h-203.5
		c-5.8,0-10.5-4.7-10.5-10.5V770.4c0-5.8,4.7-10.5,10.5-10.5h203.5c5.8,0,10.5,4.7,10.5,10.5V927z"/>
	<g>
		<polygon fill="#FFFFFF" points="1365.5,260.8 1373.2,216.1 1385.4,216.1 1377.7,260.8 1365.5,260.8 		"/>
		<path fill="#FFFFFF" d="M1422,217.2c-2.4-0.9-6.2-1.9-10.9-1.9c-12.1,0-20.5,6.1-20.6,14.8c-0.1,6.4,6.1,10,10.7,12.2
			c4.7,2.2,6.3,3.6,6.3,5.5c0,3-3.8,4.4-7.3,4.4c-4.9,0-7.5-0.7-11.5-2.3l-1.6-0.7l-1.7,10c2.8,1.3,8.1,2.3,13.6,2.4
			c12.8,0,21.1-6,21.2-15.3c0-5.1-3.2-9-10.2-12.2c-4.3-2.1-6.9-3.5-6.9-5.6c0-1.9,2.2-3.8,7-3.8c4-0.1,6.9,0.8,9.1,1.7l1.1,0.5
			L1422,217.2L1422,217.2z"/>
		<path fill="#FFFFFF" d="M1453.2,216.1h-9.4c-2.9,0-5.1,0.8-6.4,3.7l-18.1,41h12.8c0,0,2.1-5.5,2.6-6.7c1.4,0,13.8,0,15.6,0
			c0.4,1.6,1.5,6.7,1.5,6.7h11.3L1453.2,216.1L1453.2,216.1z M1438.2,245c1-2.6,4.9-12.5,4.9-12.5c-0.1,0.1,1-2.6,1.6-4.3l0.8,3.9
			c0,0,2.3,10.7,2.8,12.9H1438.2L1438.2,245z"/>
		<path fill="#FFFFFF" d="M1355.3,216.1l-11.9,30.5l-1.3-6.2c-2.2-7.2-9.1-14.9-16.9-18.8l10.9,39.1l12.9,0l19.2-44.7H1355.3
			L1355.3,216.1z"/>
		<path fill="#F9A51B" d="M1332.3,216.1h-19.7l-0.1,0.9c15.3,3.7,25.4,12.7,29.6,23.4l-4.3-20.6
			C1337.1,217,1334.9,216.2,1332.3,216.1L1332.3,216.1z"/>
	</g>
	<g>
		<g>
			<g>
				<path fill="#ED1C2E" d="M1651.9,238.3c0,22.4-18.2,40.6-40.6,40.6c-22.4,0-40.6-18.2-40.6-40.6c0-22.4,18.2-40.6,40.6-40.6
					C1633.7,197.6,1651.9,215.8,1651.9,238.3z"/>
				<g>
					<path fill="#FCB131" d="M1665.8,197.6c-10.5,0-20.1,4-27.3,10.5c-1.5,1.3-2.8,2.8-4.1,4.3h8.2c1.1,1.4,2.2,2.8,3.1,4.3h-14.4
						c-0.9,1.4-1.6,2.8-2.3,4.3h19.1c0.7,1.4,1.2,2.8,1.7,4.3h-22.5c-0.5,1.4-0.9,2.8-1.2,4.3h24.9c0.6,2.8,0.9,5.7,0.9,8.6
						c0,4.5-0.7,8.9-2.1,12.9h-22.5c0.5,1.5,1.1,2.9,1.7,4.3h19.1c-0.7,1.5-1.5,2.9-2.3,4.3h-14.4c0.9,1.5,2,2.9,3.1,4.3h8.2
						c-1.3,1.5-2.6,3-4.1,4.3c7.2,6.5,16.8,10.5,27.3,10.5c22.4,0,40.6-18.2,40.6-40.6C1706.5,215.8,1688.3,197.6,1665.8,197.6z"/>
				</g>
			</g>
		</g>
		<g>
			<g>
				<path fill="#003473" d="M1601.8,242.7c-0.5-0.1-0.7-0.1-1-0.1c-2.5,0-3.8,0.9-3.8,2.6c0,1,0.6,1.7,1.6,1.7
					C1600.4,246.9,1601.7,245.2,1601.8,242.7z M1605,250.2c-0.6,0-3.7,0-3.7,0l0.1-1.7c-1.1,1.4-2.6,2-4.6,2c-2.4,0-4-1.9-4-4.6
					c0-4.1,2.9-6.5,7.7-6.5c0.5,0,1.1,0,1.8,0.1c0.1-0.6,0.2-0.8,0.2-1.1c0-1.1-0.8-1.5-2.8-1.5c-2.2,0-3.9,0.5-4.7,0.8
					c0-0.3,0.6-3.8,0.6-3.8c2.2-0.6,3.6-0.9,5.3-0.9c3.8,0,5.8,1.7,5.8,4.9c0,0.9-0.1,1.9-0.4,3.3
					C1605.9,243.7,1605.1,248.9,1605,250.2z"/>
				<polygon fill="#003473" points="1590.9,250.2 1586.5,250.2 1589,234.3 1583.4,250.2 1580.4,250.2 1580,234.4 1577.3,250.2 
					1573.2,250.2 1576.6,229.6 1583,229.6 1583.4,241.1 1587.2,229.6 1594.3,229.6 				"/>
				<path fill="#003473" d="M1671.3,242.7c-0.5-0.1-0.7-0.1-1-0.1c-2.5,0-3.8,0.9-3.8,2.6c0,1,0.6,1.7,1.6,1.7
					C1669.9,246.9,1671.2,245.2,1671.3,242.7z M1674.5,250.2c-0.6,0-3.7,0-3.7,0l0.1-1.7c-1.1,1.4-2.6,2-4.6,2c-2.4,0-4-1.9-4-4.6
					c0-4.1,2.9-6.5,7.7-6.5c0.5,0,1.1,0,1.8,0.1c0.1-0.6,0.2-0.8,0.2-1.1c0-1.1-0.8-1.5-2.8-1.5c-2.2,0-3.9,0.5-4.7,0.8
					c0.1-0.3,0.6-3.8,0.6-3.8c2.2-0.6,3.6-0.9,5.3-0.9c3.8,0,5.8,1.7,5.8,4.9c0,0.9-0.1,1.9-0.4,3.3
					C1675.4,243.7,1674.6,248.9,1674.5,250.2z"/>
				<path fill="#003473" d="M1624.6,249.9c-1.2,0.4-2.2,0.5-3.2,0.5c-2.3,0-3.5-1.3-3.5-3.7c0-0.7,0.3-2.7,0.6-4.5
					c0.3-1.6,1.9-11.4,1.9-11.4h4.4l-0.5,2.5l2.6,0l-0.6,4h-2.7c-0.5,3.2-1.2,7.2-1.2,7.7c0,0.9,0.5,1.2,1.5,1.2
					c0.5,0,0.9,0,1.2-0.2L1624.6,249.9z"/>
				<path fill="#003473" d="M1638,249.8c-1.5,0.5-3,0.7-4.5,0.7c-4.9,0-7.5-2.6-7.5-7.5c0-5.7,3.3-9.9,7.7-9.9
					c3.6,0,5.9,2.4,5.9,6.1c0,1.2-0.2,2.4-0.5,4.1h-8.7c-0.3,2.4,1.3,3.4,3.8,3.4c1.6,0,3-0.3,4.6-1.1L1638,249.8z M1635.6,239.9
					c0-0.4,0.5-3-2-3c-1.4,0-2.4,1.1-2.8,3H1635.6z"/>
				<path fill="#003473" d="M1607.6,238.7c0,2.1,1,3.6,3.4,4.7c1.8,0.8,2.1,1.1,2.1,1.8c0,1-0.8,1.5-2.5,1.5c-1.3,0-2.5-0.2-4-0.7
					c0,0-0.6,3.7-0.6,3.9c1,0.2,1.9,0.4,4.6,0.5c4.7,0,6.8-1.8,6.8-5.6c0-2.3-0.9-3.7-3.1-4.7c-1.8-0.8-2.1-1-2.1-1.8
					c0-0.9,0.7-1.4,2.2-1.4c0.9,0,2,0.1,3.2,0.3l0.6-3.9c-1.1-0.2-2.9-0.3-3.9-0.3C1609.3,233,1607.6,235.6,1607.6,238.7z"/>
				<path fill="#003473" d="M1659.5,233.5c1.2,0,2.4,0.3,3.9,1.1l0.7-4.5c-0.6-0.3-2.9-1.7-4.8-1.7c-2.9,0-5.5,1.5-7.2,3.9
					c-2.6-0.8-3.6,0.9-4.9,2.6l-1.1,0.3c0.1-0.6,0.2-1.1,0.1-1.7h-4.1c-0.6,5.2-1.5,10.4-2.3,15.6l-0.2,1.1h4.4
					c0.7-4.8,1.1-7.9,1.4-9.9l1.7-0.9c0.2-0.9,1-1.2,2.6-1.2c-0.2,1.1-0.3,2.2-0.3,3.4c0,5.5,3,8.9,7.7,8.9c1.2,0,2.3-0.2,3.9-0.6
					l0.8-4.7c-1.5,0.7-2.7,1.1-3.7,1.1c-2.6,0-4.1-1.9-4.1-5C1653.9,236.7,1656.2,233.5,1659.5,233.5z"/>
				<path fill="#003473" d="M1696.8,229.6l-1,6c-1.2-1.6-2.5-2.7-4.2-2.7c-2.2,0-4.3,1.7-5.6,4.2c-1.8-0.4-3.8-1-3.8-1l0,0
					c0.1-1.4,0.2-2.2,0.2-2.5l-4.1,0c-0.6,5.2-1.5,10.4-2.3,15.6l-0.2,1.1h4.4c0.6-3.9,1.1-7.1,1.4-9.6c1.5-1.4,2.3-2.6,3.8-2.5
					c-0.7,1.6-1.1,3.5-1.1,5.4c0,4.2,2.1,7,5.3,7c1.6,0,2.9-0.6,4.1-1.8l-0.2,1.6h4.2l3.4-20.6H1696.8z M1691.3,246.3
					c-1.5,0-2.3-1.1-2.3-3.3c0-3.3,1.4-5.6,3.4-5.6c1.5,0,2.3,1.2,2.3,3.3C1694.8,244,1693.4,246.3,1691.3,246.3z"/>
			</g>
			<g>
				<polygon fill="#FFFFFF" points="1592.2,249 1587.7,249 1590.3,233.1 1584.6,249 1581.6,249 1581.3,233.2 1578.6,249 1574.5,249 
					1577.9,228.3 1584.3,228.3 1584.4,241.1 1588.7,228.3 1595.6,228.3 				"/>
				<path fill="#FFFFFF" d="M1603,241.5c-0.5-0.1-0.7-0.1-1-0.1c-2.5,0-3.8,0.9-3.8,2.6c0,1,0.6,1.7,1.6,1.7
					C1601.7,245.7,1602.9,244,1603,241.5z M1606.2,249c-0.6,0-3.7,0-3.7,0l0.1-1.7c-1.1,1.4-2.6,2-4.6,2c-2.4,0-4-1.9-4-4.6
					c0-4.1,2.8-6.5,7.7-6.5c0.5,0,1.1,0,1.8,0.1c0.1-0.6,0.2-0.8,0.2-1.1c0-1.1-0.8-1.5-2.8-1.5c-2.2,0-3.9,0.5-4.7,0.8
					c0-0.3,0.6-3.8,0.6-3.8c2.2-0.6,3.6-0.9,5.3-0.9c3.8,0,5.8,1.7,5.8,4.9c0,0.9-0.1,1.9-0.4,3.3
					C1607.2,242.5,1606.3,247.7,1606.2,249z"/>
				<path fill="#FFFFFF" d="M1665.4,228.9l-0.7,4.5c-1.6-0.8-2.7-1.1-3.9-1.1c-3.3,0-5.6,3.2-5.6,7.7c0,3.1,1.6,5,4.1,5
					c1.1,0,2.3-0.3,3.8-1.1l-0.8,4.7c-1.6,0.4-2.7,0.6-3.9,0.6c-4.8,0-7.7-3.4-7.7-8.9c0-7.4,4.1-12.5,9.9-12.5
					C1662.5,227.8,1664.8,228.6,1665.4,228.9z"/>
				<path fill="#FFFFFF" d="M1672.5,241.5c-0.5-0.1-0.7-0.1-1-0.1c-2.5,0-3.8,0.9-3.8,2.6c0,1,0.6,1.7,1.6,1.7
					C1671.2,245.7,1672.5,244,1672.5,241.5z M1675.7,249c-0.6,0-3.7,0-3.7,0l0.1-1.7c-1.1,1.4-2.6,2-4.6,2c-2.4,0-4-1.9-4-4.6
					c0-4.1,2.8-6.5,7.7-6.5c0.5,0,1.1,0,1.8,0.1c0.1-0.6,0.2-0.8,0.2-1.1c0-1.1-0.8-1.5-2.8-1.5c-2.2,0-3.9,0.5-4.7,0.8
					c0-0.3,0.6-3.8,0.6-3.8c2.2-0.6,3.6-0.9,5.3-0.9c3.8,0,5.8,1.7,5.8,4.9c0,0.9-0.1,1.9-0.4,3.3
					C1676.7,242.5,1675.9,247.7,1675.7,249z"/>
				<path fill="#FFFFFF" d="M1625.8,248.7c-1.2,0.4-2.1,0.5-3.2,0.5c-2.3,0-3.5-1.3-3.5-3.7c0-0.7,0.3-2.7,0.6-4.5
					c0.3-1.6,1.9-11.4,1.9-11.4h4.4l-0.5,2.5h2.3l-0.6,4h-2.3c-0.5,3.2-1.2,7.2-1.2,7.7c0,0.9,0.5,1.2,1.5,1.2c0.5,0,0.9,0,1.2-0.2
					L1625.8,248.7z"/>
				<path fill="#FFFFFF" d="M1639.3,248.6c-1.5,0.5-3,0.7-4.5,0.7c-4.9,0-7.5-2.6-7.5-7.5c0-5.7,3.3-10,7.7-10
					c3.6,0,5.9,2.4,5.9,6.1c0,1.2-0.2,2.4-0.5,4.1h-8.7c-0.3,2.4,1.3,3.4,3.8,3.4c1.6,0,3-0.3,4.6-1.1L1639.3,248.6z M1636.8,238.6
					c0-0.4,0.5-3-2-3c-1.4,0-2.4,1.1-2.8,3H1636.8z"/>
				<path fill="#FFFFFF" d="M1608.9,237.5c0,2.1,1,3.6,3.4,4.7c1.8,0.8,2.1,1.1,2.1,1.9c0,1-0.8,1.5-2.5,1.5c-1.3,0-2.5-0.2-3.9-0.7
					c0,0-0.6,3.7-0.6,3.9c1,0.2,1.9,0.4,4.6,0.5c4.7,0,6.8-1.8,6.8-5.6c0-2.3-0.9-3.7-3.1-4.7c-1.8-0.9-2.1-1-2.1-1.8
					c0-0.9,0.7-1.4,2.2-1.4c0.9,0,2,0.1,3.2,0.3l0.6-3.9c-1.1-0.2-2.9-0.3-3.9-0.3C1610.6,231.8,1608.9,234.4,1608.9,237.5z"/>
				<path fill="#FFFFFF" d="M1699.1,249h-4.2l0.2-1.6c-1.2,1.3-2.5,1.9-4.1,1.9c-3.2,0-5.3-2.8-5.3-7c0-5.6,3.3-10.3,7.2-10.3
					c1.7,0,3,0.7,4.2,2.3l1-6h4.4L1699.1,249z M1692.6,245.1c2.1,0,3.5-2.3,3.5-5.7c0-2.1-0.8-3.3-2.3-3.3c-2,0-3.4,2.3-3.4,5.6
					C1690.3,244,1691.1,245.1,1692.6,245.1z"/>
				<path fill="#FFFFFF" d="M1679.7,232.2c-0.6,5.2-1.5,10.4-2.3,15.6l-0.2,1.1h4.4c1.6-10.3,2-12.3,4.4-12c0.4-2.1,1.1-3.9,1.7-4.9
					c-1.8-0.4-2.9,0.7-4.2,2.6c0.1-0.9,0.3-1.7,0.3-2.5H1679.7z"/>
				<path fill="#FFFFFF" d="M1643.4,232.2c-0.6,5.2-1.5,10.4-2.3,15.6l-0.2,1.1h4.4c1.6-10.3,2-12.3,4.4-12c0.4-2.1,1.1-3.9,1.7-4.9
					c-1.8-0.4-2.9,0.7-4.2,2.6c0.1-0.9,0.3-1.7,0.3-2.5H1643.4z"/>
				<g>
					<path fill="#FFFFFF" d="M1701,247.6c0-0.7,0.6-1.3,1.3-1.3c0.7,0,1.3,0.6,1.3,1.3c0,0.7-0.6,1.3-1.3,1.3
						C1701.6,249,1701,248.4,1701,247.6z M1702.3,248.6c0.6,0,1-0.4,1-1c0-0.6-0.4-1-1-1c-0.6,0-1,0.4-1,1
						C1701.3,248.2,1701.8,248.6,1702.3,248.6z M1702.2,248.2h-0.3v-1.2h0.5c0.1,0,0.2,0,0.3,0.1c0.1,0.1,0.1,0.2,0.1,0.3
						c0,0.1-0.1,0.3-0.2,0.3l0.2,0.5h-0.3l-0.2-0.5h-0.2V248.2z M1702.2,247.6h0.1c0.1,0,0.1,0,0.2,0c0,0,0.1-0.1,0.1-0.1
						c0,0,0-0.1-0.1-0.1c0,0-0.1,0-0.2,0h-0.1V247.6z"/>
				</g>
			</g>
		</g>
	</g>
	<path fill="#FFFFFF" d="M1822.5,222.3l-3-7.5l-3,7.5 M1889.2,219.3c-0.6,0.4-1.3,0.4-2.2,0.4h-5.4v-4.2h5.4c0.8,0,1.6,0,2.1,0.3
		c0.6,0.3,0.9,0.9,0.9,1.7C1890.1,218.4,1889.7,219,1889.2,219.3z M1927.5,222.3l-3.1-7.5l-3,7.5H1927.5z M1856.1,230.4h-4.5l0-14.7
		l-6.4,14.7h-3.9l-6.4-14.7v14.7h-9l-1.7-4.2h-9.2l-1.7,4.2h-4.8l7.9-18.7h6.6l7.5,17.7v-17.7h7.2l5.8,12.7l5.3-12.7h7.4V230.4
		L1856.1,230.4z M1874.1,230.4h-14.8v-18.7h14.8v3.9h-10.3v3.4h10.1v3.8h-10.1v3.7h10.3V230.4z M1894.9,216.7c0,3-2,4.5-3.1,5
		c1,0.4,1.8,1,2.2,1.6c0.6,0.9,0.7,1.8,0.7,3.4v3.7h-4.5l0-2.4c0-1.1,0.1-2.8-0.7-3.6c-0.6-0.7-1.6-0.8-3.2-0.8h-4.7v6.8h-4.4v-18.7
		h10.2c2.3,0,3.9,0.1,5.3,0.9C1894.1,213.4,1894.9,214.6,1894.9,216.7z M1902,230.4h-4.5v-18.7h4.5V230.4z M1954.3,230.4h-6.3
		l-8.4-14.1v14.1h-9l-1.7-4.2h-9.2l-1.7,4.2h-5.2c-2.1,0-4.9-0.5-6.4-2.1c-1.6-1.6-2.4-3.7-2.4-7.1c0-2.8,0.5-5.3,2.4-7.3
		c1.4-1.5,3.7-2.2,6.7-2.2h4.3v4h-4.2c-1.6,0-2.5,0.2-3.4,1.1c-0.8,0.8-1.3,2.3-1.3,4.2c0,2,0.4,3.4,1.2,4.4c0.7,0.7,1.9,1,3.1,1h2
		l6.2-14.7h6.6l7.5,17.7v-17.7h6.7l7.8,13v-13h4.5V230.4L1954.3,230.4z M1808.3,234.1h7.6l1.7-4.2h3.8l1.7,4.2h14.9v-3.2l1.3,3.2
		h7.7l1.3-3.2v3.2h36.9l0-6.8h0.7c0.5,0,0.6,0.1,0.6,0.9v5.9h19.1v-1.6c1.5,0.8,3.9,1.6,7.1,1.6h8l1.7-4.2h3.8l1.7,4.2h15.5v-4
		l2.3,4h12.4v-26.1H1946v3.1l-1.7-3.1h-12.6v3.1l-1.6-3.1h-17c-2.8,0-5.4,0.4-7.4,1.5v-1.5H1894v1.5c-1.3-1.2-3-1.5-5-1.5h-42.9
		l-2.9,6.7l-3-6.7h-13.5v3.1l-1.5-3.1h-11.5l-5.4,12.4L1808.3,234.1L1808.3,234.1z"/>
	<path fill="#FFFFFF" d="M1966.3,247.9h-8.1c-0.8,0-1.3,0-1.8,0.3c-0.5,0.3-0.6,0.7-0.6,1.3c0,0.7,0.4,1.2,1,1.4
		c0.5,0.2,1,0.2,1.7,0.2l2.4,0.1c2.4,0.1,4,0.5,5,1.5c0.2,0.1,0.3,0.3,0.4,0.5 M1966.3,260.2c-1.1,1.6-3.2,2.4-6,2.4h-8.5v-4h8.5
		c0.8,0,1.4-0.1,1.8-0.5c0.3-0.3,0.5-0.7,0.5-1.2c0-0.5-0.2-1-0.5-1.2c-0.3-0.3-0.8-0.4-1.6-0.4c-4.1-0.1-9.3,0.1-9.3-5.8
		c0-2.7,1.7-5.6,6.3-5.6h8.8v-3.7h-8.2c-2.5,0-4.3,0.6-5.5,1.5v-1.5h-12.1c-1.9,0-4.2,0.5-5.3,1.5v-1.5h-21.6v1.5
		c-1.7-1.3-4.6-1.5-6-1.5h-14.3v1.5c-1.4-1.3-4.4-1.5-6.2-1.5h-15.9l-3.7,4l-3.4-4h-23.8v26.1h23.4l3.8-4.1l3.5,4.1l14.4,0v-6.1h1.4
		c1.9,0,4.2,0,6.2-0.9v7.1h11.9v-6.8h0.6c0.7,0,0.8,0,0.8,0.8v6h36.1c2.3,0,4.7-0.6,6-1.7v1.7h11.5c2.4,0,4.7-0.3,6.5-1.2V260.2
		L1966.3,260.2z M1948.7,252.7c0.9,0.9,1.3,2,1.3,4c0,4-2.5,5.9-6.9,5.9h-8.6v-4h8.6c0.8,0,1.4-0.1,1.8-0.5c0.3-0.3,0.5-0.7,0.5-1.2
		c0-0.5-0.2-1-0.5-1.2c-0.3-0.3-0.8-0.4-1.6-0.4c-4.1-0.1-9.3,0.1-9.3-5.8c0-2.7,1.7-5.6,6.3-5.6h8.9v4h-8.1c-0.8,0-1.3,0-1.8,0.3
		c-0.5,0.3-0.7,0.8-0.7,1.3c0,0.7,0.4,1.2,1,1.4c0.5,0.2,1,0.2,1.7,0.2l2.4,0.1C1946.1,251.3,1947.7,251.7,1948.7,252.7z
		 M1908.8,251.6c-0.6,0.4-1.3,0.4-2.2,0.4h-5.4v-4.2h5.4c0.8,0,1.6,0,2.1,0.3c0.6,0.3,0.9,0.9,0.9,1.7
		C1909.7,250.6,1909.4,251.2,1908.8,251.6z M1911.5,253.9c1,0.4,1.8,1,2.2,1.6c0.6,0.9,0.7,1.8,0.7,3.4v3.7h-4.4v-2.3
		c0-1.1,0.1-2.8-0.7-3.7c-0.6-0.7-1.6-0.8-3.2-0.8h-4.7v6.8h-4.4v-18.7h10.2c2.2,0,3.9,0.1,5.3,0.9c1.4,0.9,2.3,2,2.3,4.2
		C1914.6,251.9,1912.7,253.4,1911.5,253.9z M1917.1,243.9h14.8v3.9h-10.3v3.4h10.1v3.8h-10.1v3.7l10.3,0v3.9h-14.8V243.9z
		 M1887.3,252.5h-5.7v-4.8h5.8c1.6,0,2.7,0.7,2.7,2.3C1890,251.7,1889,252.5,1887.3,252.5z M1877.1,260.9l-6.8-7.6l6.8-7.4V260.9z
		 M1859.6,258.7h-10.9V255h9.7v-3.8h-9.7v-3.4h11.1l4.8,5.5L1859.6,258.7z M1894.8,250.1c0,5.2-3.8,6.3-7.7,6.3h-5.5v6.3h-8.6
		l-5.4-6.2l-5.7,6.2h-17.5v-18.7h17.8l5.4,6.1l5.6-6.1h14.1C1890.8,243.9,1894.8,244.9,1894.8,250.1z"/>
	<g>
		<path fill-rule="evenodd" clip-rule="evenodd" fill="#0D4E96" d="M2152.3,233.2c13.4,0,24.2-10.8,24.2-24.2
			c0-13.4-10.8-24.2-24.2-24.2h-30.6c-13.4,0-24.2,10.8-24.2,24.2c0,13.4,10.8,24.2,24.2,24.2H2152.3L2152.3,233.2z"/>
		<path fill-rule="evenodd" clip-rule="evenodd" fill="#D0D1D2" d="M2121.7,232.6c13.1,0,23.7-10.6,23.7-23.7
			c0-13.1-10.6-23.7-23.7-23.7c-13.1,0-23.7,10.6-23.7,23.7C2098.1,222,2108.7,232.6,2121.7,232.6L2121.7,232.6z"/>
		<path fill-rule="evenodd" clip-rule="evenodd" fill="#0D4E96" d="M2117,195.3c-5.6,2-9.7,7.4-9.7,13.7c0,6.3,4.1,11.7,9.7,13.7
			L2117,195.3L2117,195.3z"/>
		<path fill-rule="evenodd" clip-rule="evenodd" fill="#0D4E96" d="M2136.2,209c0,6.3-4.1,11.7-9.7,13.7l0-27.3
			C2132.2,197.3,2136.2,202.6,2136.2,209L2136.2,209z"/>
		<g>
			<path fill-rule="evenodd" clip-rule="evenodd" fill="#0D4E96" d="M2102.2,245.2c0-2.6-1.5-6.5-7.2-6.5h-6.3v0.4
				c1.2,0.1,1.9,0.2,1.9,1.1c0,0.5-0.2,1.2-0.3,1.5l-2.9,10.3c-0.4,1.5-0.8,1.6-2,1.8v0.4h6.2
				C2098.9,254.2,2102.2,250.2,2102.2,245.2z M2089.8,252.5c0-0.4,0.3-1.5,0.5-2.3l2.9-10.1c0.1-0.3,0.2-0.7,1.6-0.7
				c4.3,0,4.7,3,4.7,5.5c0,1.5-0.2,8.6-7.9,8.6C2090.4,253.5,2089.8,253.3,2089.8,252.5z"/>
			<path fill-rule="evenodd" clip-rule="evenodd" fill="#0D4E96" d="M2104.2,254.5c1.4,0,2.4-1.3,3.4-2.8l-0.3-0.3
				c-1,1.4-1.7,1.9-2,1.9c-0.2,0-0.4-0.2-0.4-0.4c0-0.3,0.3-1.3,0.4-1.6l2.2-7.9l-0.1,0c-1,0.2-3,0.6-3.9,0.6l0,0.4
				c1.3,0,1.5,0.1,1.5,0.6c0,0.7-1.9,6.8-1.9,7.9C2103,253.4,2103,254.5,2104.2,254.5z"/>
			<path fill-rule="evenodd" clip-rule="evenodd" fill="#0D4E96" d="M2107.1,240.8c0.8,0,1.2-0.8,1.2-1.3c0-0.5-0.4-1.3-1.2-1.3
				c-0.6,0-1.2,0.5-1.2,1.3C2105.9,240.4,2106.5,240.8,2107.1,240.8z"/>
			<path fill-rule="evenodd" clip-rule="evenodd" fill="#0D4E96" d="M2110.2,245.2c0,0.5-1.6,6.2-2.4,9h1.8c1-3.3,1.3-4.4,2.4-6.1
				c0.9-1.4,2.4-3.5,3.6-3.5c0.5,0,0.6,0.3,0.6,0.8c0,1-1.8,7-1.8,7.5c0,0.7,0,1.4,1.2,1.4c1.3,0,2.2-1.1,3.4-2.8l-0.3-0.3
				c-0.9,1.2-1.5,1.9-2,1.9c-0.1,0-0.4,0-0.4-0.4c0-0.7,2-6.8,2-7.8c0-1-0.6-1.6-1.7-1.6c-2,0-4.3,3.4-5.4,5.2l-0.1,0l1.6-5.1
				l-0.1,0c-1.3,0.3-2.6,0.5-4,0.8v0.4C2110,244.6,2110.2,244.8,2110.2,245.2z"/>
			<path fill-rule="evenodd" clip-rule="evenodd" fill="#0D4E96" d="M2122.8,254.5c2.5,0,4.7-2.3,4.9-2.6l-0.3-0.3
				c-1.2,1-2.3,1.8-3.6,1.8c-1,0-2.3-0.6-2.3-2.2c0-0.5,0.1-1,0.2-1.5l0.7-0.1c4-0.6,6.3-2.5,6.3-4.5c0-1.1-0.8-1.7-2-1.7
				c-3.5,0-7.3,4.1-7.3,7.6C2119.4,252.6,2120.2,254.5,2122.8,254.5z M2122.4,248c0.9-2.2,2.6-4.1,3.9-4.1c0.6,0,0.9,0.5,0.9,1
				c0,0.2-0.1,3.1-5.2,4.2L2122.4,248z"/>
			<path fill-rule="evenodd" clip-rule="evenodd" fill="#0D4E96" d="M2130.9,245.1c0,0.2-0.2,1-0.4,2l-2,7.1h1.9
				c1-3.3,1.3-4.4,2.3-6.1c0.2-0.4,1.7-3.1,2.4-3.1c0.6,0,0.2,0.9,1.3,0.9c0.3,0,1.2,0,1.2-1.3c0-0.8-0.6-1.2-1.2-1.2
				c-1.5,0-3.4,2.9-4.2,4.5l-0.2,0.5l0,0l1.2-4.9l-0.1,0c-1.1,0.2-2.5,0.5-3.8,0.7v0.4c0.3,0,0.5-0.1,0.8-0.1
				C2130.8,244.4,2130.9,244.8,2130.9,245.1z"/>
			<path fill-rule="evenodd" clip-rule="evenodd" fill="#0D4E96" d="M2139,254c-2,0-2.4-2.3-2.5-3.3h-0.4l-0.5,3.9h0.4
				c0.1-0.3,0.2-0.5,0.6-0.5c0.7,0,1.7,0.5,2.4,0.5c1.4,0,3.6-0.6,3.6-3.3c0-2.1-3-4.3-3-5.8c0-1.2,0.8-1.4,1.3-1.4
				c1.6,0,2.2,1.4,2.3,2.8h0.4l0.5-3.4h-0.3c-0.1,0.2-0.3,0.4-0.7,0.4c-0.7,0-1.2-0.4-2.3-0.4c-2.6,0-2.9,2-2.9,2.7
				c0,1.9,2.9,4.2,2.9,5.9C2140.7,252.8,2140.3,254,2139,254z"/>
			<path fill-rule="evenodd" clip-rule="evenodd" fill="#0D4E96" d="M2155.9,254.7c3.6,0,5.8-2.6,6.7-3.6l-0.4-0.3
				c-1.2,1.1-2.9,2.9-5.7,2.9c-2.9,0-4.3-2-4.3-5.2c0-3.6,2.5-9.5,7.4-9.5c3.5,0,3.7,3.3,3.8,4l0.4,0.1l0.9-4.9h-0.5
				c-0.1,0.2-0.3,0.5-1,0.5c-0.6,0-2.1-0.6-3.8-0.6c-5.6,0-9.9,5.4-9.9,10.1C2149.4,252.9,2153,254.7,2155.9,254.7z"/>
			<path fill-rule="evenodd" clip-rule="evenodd" fill="#0D4E96" d="M2167.6,239.1c0,0.5-3.6,13.3-3.6,13.8c0,0.7,0.1,1.5,1.2,1.5
				c1.5,0,2.5-1.2,3.7-3.1l-0.3-0.2c-1.2,1.5-1.7,2.2-2.3,2.2c-0.4,0-0.4-0.3-0.4-0.5c0-0.3,0.2-0.9,0.2-1.1l3.7-14.2l-0.1-0.1
				c-1.3,0.3-2.5,0.5-3.8,0.7v0.4C2166.5,238.5,2167.6,238.5,2167.6,239.1z"/>
			<path fill-rule="evenodd" clip-rule="evenodd" fill="#0D4E96" d="M2169.8,244.4c1,0,1.5,0,1.5,0.7c0,0.7-1.9,6.8-1.9,7.9
				s0.5,1.4,1.4,1.4c2.2,0,4-3.1,5.7-5.8l0.1,0c-0.6,2-1,4.1-1,4.5c0,0.4,0,1.3,1.2,1.3c1.2,0,1.9-0.6,3.4-2.9l-0.3-0.2
				c-0.9,1.1-1.5,1.9-2,1.9c-0.3,0-0.3-0.3-0.3-0.4c0-0.4,0.3-1.4,0.5-1.9l1.9-7.3h-1.8c-1,2.6-1.5,4.2-2.7,6
				c-0.8,1.3-2.4,3.6-3.4,3.6c-0.5,0-0.6-0.5-0.5-0.8l2.2-8.9l-0.1,0c-1.2,0.3-2.4,0.5-3.7,0.7V244.4z"/>
			<path fill-rule="evenodd" clip-rule="evenodd" fill="#0D4E96" d="M2183.3,254.5c3.7,0,7.8-4.2,7.8-8.1c0-1.8-1.1-3.7-2.8-3.7
				c-2.2,0-3.5,1.2-4.3,2.5l0,0c0.8-2.8,1.6-5.5,2.1-7.5l-0.1-0.1c-1.3,0.2-2.5,0.4-3.7,0.6v0.4c1.4,0,1.6,0.1,1.6,0.7
				c0,0.3-0.2,1-0.4,1.6l-3.3,12.3v0.1C2180.1,253.7,2182,254.5,2183.3,254.5z M2182.2,253.1c0.3-4.4,2.4-9.2,5.1-9.2
				c1.5,0,1.7,2,1.7,2.8c0,2.1-2.3,7.2-5.7,7.2C2182.2,253.9,2182.2,253.3,2182.2,253.1z"/>
			<path fill-rule="evenodd" clip-rule="evenodd" fill="#0D4E96" d="M2088,259.8c0.4-1.5,0.8-1.6,2-1.8v-0.4h-6v0.4
				c1.1,0.1,1.7,0.2,1.7,1.1c0,0.4-0.1,1-0.3,1.5l-2.9,10.2c-0.4,1.5-0.8,1.6-2,1.8v0.4h6v-0.4c-1.1-0.1-1.7-0.2-1.7-1
				c0-0.6,0.1-1.1,0.3-1.6L2088,259.8z"/>
			<path fill-rule="evenodd" clip-rule="evenodd" fill="#0D4E96" d="M2097,272.1c0,0-0.4-0.1-0.4-0.4c0-0.7,2-6.8,2-7.8
				c0-1-0.6-1.6-1.7-1.6c-2,0-4.3,3.4-5.4,5.2l0,0l1.6-5.1l-0.1,0c-1.3,0.3-2.6,0.5-4,0.8v0.4c1.3,0,1.6,0.3,1.6,0.6
				c0,0.5-1.6,6.2-2.4,9h1.8c1-3.3,1.3-4.4,2.4-6.1c0.9-1.4,2.4-3.5,3.6-3.5c0.5,0,0.6,0.3,0.6,0.8c0,1-1.8,7-1.8,7.5
				c0,0.7,0,1.4,1.2,1.4c1.3,0,2.2-1.1,3.4-2.8l-0.3-0.3C2098.1,271.3,2097.4,272.1,2097,272.1z"/>
			<path fill-rule="evenodd" clip-rule="evenodd" fill="#0D4E96" d="M2102,272.1c-0.3,0-0.4-0.2-0.4-0.4c0-0.1,0-0.1,0-0.2l2.2-8.2
				h2.1l0.1-0.8h-2l0.7-2.5c0-0.2,0-0.4-0.2-0.4c-0.2,0-0.3,0.2-0.4,0.3c-0.7,0.9-1.9,2-2.7,2.4c-0.4,0.2-1.1,0.4-1.2,0.6
				c-0.1,0.1-0.1,0.2,0,0.4h1.8l-1.8,6.7c-0.1,0.4-0.6,1.9-0.6,2.3c0,0.7,0.7,1,1.2,1c1.3,0,2.2-1.1,3.5-3l-0.3-0.2
				C2103.3,271,2102.5,272.1,2102,272.1z"/>
			<path fill-rule="evenodd" clip-rule="evenodd" fill="#0D4E96" d="M2108.2,268.4c4-0.6,6.3-2.5,6.3-4.5c0-1.1-0.8-1.7-2-1.7
				c-3.5,0-7.3,4.1-7.3,7.6c0,1.5,0.8,3.5,3.4,3.4c2.5,0,4.7-2.2,4.9-2.6l-0.3-0.3c-1.2,1-2.3,1.8-3.6,1.8c-1,0-2.3-0.6-2.3-2.2
				c0-0.5,0.1-1,0.2-1.5L2108.2,268.4z M2108.1,266.9c0.9-2.2,2.6-4.1,3.9-4.1c0.6,0,0.9,0.5,0.9,1c0,0.2-0.1,3.1-5.2,4.2
				L2108.1,266.9z"/>
			<path fill-rule="evenodd" clip-rule="evenodd" fill="#0D4E96" d="M2123.3,263.5c0-0.8-0.6-1.2-1.2-1.2c-1.5,0-3.4,2.9-4.2,4.5
				l-0.2,0.5l0,0l1.2-4.9l-0.1,0c-1.1,0.2-2.5,0.5-3.8,0.7l0,0.4c0.3,0,0.5-0.1,0.8-0.1c0.8,0,0.9,0.4,0.9,0.7c0,0.2-0.1,1.1-0.4,2
				l-2,7.2h1.9c1-3.3,1.3-4.4,2.3-6.1c0.2-0.4,1.7-3.1,2.4-3.1c0.6,0,0.2,0.9,1.3,0.9C2122.4,264.7,2123.3,264.7,2123.3,263.5z"/>
			<path fill-rule="evenodd" clip-rule="evenodd" fill="#0D4E96" d="M2131.6,272.1c0,0-0.4-0.1-0.4-0.4c0-0.7,2-6.8,2-7.8
				c0-1-0.6-1.6-1.7-1.6c-2,0-4.3,3.4-5.4,5.2l0,0l1.6-5.1l-0.1,0c-1.3,0.3-2.6,0.5-4,0.8v0.4c1.3,0,1.6,0.3,1.6,0.6
				c0,0.5-1.6,6.2-2.4,9h1.8c1-3.3,1.3-4.4,2.4-6.1c0.9-1.4,2.4-3.5,3.6-3.5c0.5,0,0.6,0.3,0.6,0.8c0,1-1.8,7-1.8,7.5
				c0,0.7,0,1.4,1.2,1.4c1.3,0,2.2-1.1,3.4-2.8l-0.3-0.3C2132.7,271.3,2132.1,272.1,2131.6,272.1z"/>
			<path fill-rule="evenodd" clip-rule="evenodd" fill="#0D4E96" d="M2144.9,270.4c-1.1,1.1-1.6,1.7-2,1.7c-0.2,0-0.3-0.1-0.3-0.3
				c0-0.8,2.3-9.1,2.3-9.4l-0.2-0.1l-1.5,0.2l-0.1,0.1l-0.2,1.1h0c-0.1-0.7-0.9-1.3-1.9-1.3c-3.3,0-7,4.6-7,8.2
				c0,0.7,0.1,2.9,2.5,2.9c1.5,0,2.8-0.7,4.8-3.7l0.1,0c-0.4,1.5-0.5,2-0.5,2.6c0,0.4,0,1.1,1,1.1c1.1,0,1.9-0.9,3.4-2.7
				L2144.9,270.4z M2137.5,272.1c-0.7,0-1.5-0.4-1.5-1.7c0-2.2,2.2-7.6,5.1-7.6c0.7,0,1.4,0.5,1.4,1.6
				C2142.5,266.8,2140.1,272.1,2137.5,272.1z"/>
			<path fill-rule="evenodd" clip-rule="evenodd" fill="#0D4E96" d="M2150.2,260.1c0-0.2,0-0.4-0.2-0.4c-0.2,0-0.3,0.2-0.4,0.3
				c-0.7,0.9-1.9,2-2.7,2.4c-0.4,0.2-1.1,0.4-1.2,0.6c-0.1,0.1-0.1,0.2,0,0.4h1.8l-1.8,6.7c-0.1,0.4-0.6,1.9-0.6,2.3
				c0,0.7,0.7,1,1.2,1c1.3,0,2.2-1.1,3.5-3l-0.3-0.2c-0.6,0.8-1.5,1.9-2,1.9c-0.3,0-0.4-0.2-0.4-0.4c0-0.1,0-0.1,0-0.2l2.2-8.2h2.1
				l0.1-0.8h-2L2150.2,260.1z"/>
			<path fill-rule="evenodd" clip-rule="evenodd" fill="#0D4E96" d="M2154.2,272.2c-0.2,0-0.4-0.2-0.4-0.4c0-0.3,0.3-1.3,0.4-1.6
				l2.2-7.9l-0.1,0c-1,0.2-3,0.6-3.9,0.6v0.4c1.3,0,1.5,0.1,1.5,0.6c0,0.7-1.9,6.8-1.9,7.9c0,0.4,0,1.5,1.2,1.5
				c1.4,0,2.5-1.3,3.4-2.8l-0.3-0.3C2155.2,271.7,2154.5,272.2,2154.2,272.2z"/>
			<path fill-rule="evenodd" clip-rule="evenodd" fill="#0D4E96" d="M2156,257c-0.6,0-1.1,0.5-1.1,1.3c0,0.9,0.6,1.3,1.2,1.3
				c0.8,0,1.2-0.8,1.2-1.3C2157.2,257.8,2156.8,257,2156,257z"/>
			<path fill-rule="evenodd" clip-rule="evenodd" fill="#0D4E96" d="M2164.1,262.3c-3.6,0-7.2,3.9-7.2,7.5c0,2,1.1,3.5,3.7,3.5
				c3.7,0,7.1-4.4,7.1-7.4C2167.7,264.3,2166.9,262.3,2164.1,262.3z M2160.9,272.8c-1.2,0-2-0.9-2-2.3c0-2.9,2.2-7.8,5-7.8
				c1.2,0,1.7,1.1,1.7,2.4C2165.7,267.7,2163.7,272.8,2160.9,272.8z"/>
			<path fill-rule="evenodd" clip-rule="evenodd" fill="#0D4E96" d="M2175.9,272.1c0,0-0.4-0.1-0.4-0.4c0-0.7,2-6.8,2-7.8
				c0-1-0.6-1.6-1.7-1.6c-2,0-4.3,3.4-5.4,5.2l-0.1,0l1.6-5.1l-0.1,0c-1.3,0.3-2.6,0.5-4,0.8l0,0.4c1.3,0,1.6,0.3,1.6,0.6
				c0,0.5-1.6,6.2-2.4,9h1.8c1-3.3,1.3-4.4,2.4-6.1c0.9-1.4,2.4-3.5,3.6-3.5c0.5,0,0.6,0.3,0.6,0.8c0,1-1.8,7-1.8,7.5
				c0,0.7,0,1.4,1.2,1.4c1.3,0,2.2-1.1,3.4-2.8l-0.3-0.3C2177,271.3,2176.4,272.1,2175.9,272.1z"/>
			<path fill-rule="evenodd" clip-rule="evenodd" fill="#0D4E96" d="M2187.4,272.1c-0.2,0-0.3-0.1-0.3-0.3c0-0.8,2.3-9.1,2.3-9.4
				l-0.2-0.1l-1.5,0.2l-0.1,0.1l-0.2,1.1h-0.1c-0.1-0.7-0.9-1.3-1.9-1.3c-3.3,0-7,4.6-7,8.2c0,0.7,0.1,2.9,2.5,2.9
				c1.5,0,2.8-0.7,4.8-3.7l0,0c-0.4,1.5-0.5,2-0.5,2.6c0,0.4,0,1.1,1,1.1c1.1,0,1.9-0.9,3.4-2.7l-0.3-0.2
				C2188.2,271.4,2187.7,272.1,2187.4,272.1z M2181.9,272.1c-0.7,0-1.5-0.4-1.5-1.7c0-2.2,2.2-7.6,5.1-7.6c0.7,0,1.4,0.5,1.4,1.6
				C2186.9,266.8,2184.5,272.1,2181.9,272.1z"/>
			<path fill-rule="evenodd" clip-rule="evenodd" fill="#0D4E96" d="M2195.7,256.5l-0.1-0.1c-1.3,0.3-2.5,0.5-3.8,0.7v0.4
				c0.6,0,1.7,0,1.7,0.6c0,0.5-3.5,13.3-3.5,13.8c0,0.7,0.1,1.5,1.2,1.5c1.5,0,2-0.5,3.2-2.4l-0.3-0.2c-1.2,1.5-1.2,1.6-1.9,1.6
				c-0.4,0-0.4-0.3-0.4-0.5c0-0.3,0.2-0.9,0.2-1.2L2195.7,256.5z"/>
			<path fill-rule="evenodd" clip-rule="evenodd" fill="#0D4E96" d="M2198.2,256c-1.2,0-2.2,0.9-2.2,2.1c0,1.2,1,2.1,2.2,2.1
				c1.2,0,2.1-0.9,2.1-2.1C2200.3,256.9,2199.4,256,2198.2,256z M2198.2,259.8c-1,0-1.7-0.8-1.7-1.8c0-1,0.8-1.8,1.7-1.8
				c1,0,1.7,0.8,1.7,1.8C2199.9,259.1,2199.2,259.8,2198.2,259.8z"/>
			<path fill-rule="evenodd" clip-rule="evenodd" fill="#0D4E96" d="M2199.2,257.6c0-0.5-0.3-0.7-0.9-0.7h-0.9v2.4h0.4v-1.1l0.4,0
				l0.6,1.1l0.4,0l-0.7-1.1C2198.9,258.2,2199.2,258,2199.2,257.6z M2197.8,257.9v-0.8h0.5c0.3,0,0.5,0.1,0.5,0.4
				c0,0.4-0.3,0.4-0.6,0.4H2197.8z"/>
		</g>
	</g>
	<g>
		
			<path fill-rule="evenodd" clip-rule="evenodd" fill="#2A252E" stroke="#888888" stroke-width="0.5" stroke-miterlimit="22.9256" d="
			M1391.2,694.9c28.1,0,51.1-23,51.1-51.1c0-28.1-23-51.1-51.1-51.1c-28.1,0-51.1,23-51.1,51.1
			C1340.2,672,1363.1,694.9,1391.2,694.9z"/>
		<path fill-rule="evenodd" clip-rule="evenodd" fill="#F9EC29" d="M1369.3,630.1c7.4,0,13.6,5.1,15.3,12l-6.3,2.8l0,0l-6.5,2.8
			l-3.6,1.6v-6l7.9-3.4c-1.6-1.9-4.1-3-6.7-3c-0.4,0-0.8,0-1.1,0.1v-6.8C1368.5,630.2,1368.9,630.1,1369.3,630.1z M1368.2,649.3
			l-12,5.2c-1.7-2.5-2.6-5.5-2.6-8.7c0-8.3,6.4-15.1,14.6-15.7v6.8c-4.4,0.5-7.9,4.3-7.9,8.9c0,0.3,0,0.5,0,0.8l7.8-3.4V649.3z"/>
		<path fill-rule="evenodd" clip-rule="evenodd" fill="#FFFFFF" d="M1380.3,657.1c-5.6,5.3-13.1,5.9-19.6,1.9l3.7-5.6
			c3.7,2.2,7.5,1.9,11.2-1.1L1380.3,657.1z"/>
		<path fill-rule="evenodd" clip-rule="evenodd" fill="#FFFFFF" d="M1386.7,653.2l0-29.7h5.6v28.9c0,0.3,0,0.5,0.4,0.7l4.9,1.9
			l-2.2,5.7l-5.7-2.4C1387.4,657.3,1386.7,656,1386.7,653.2z"/>
		<path fill-rule="evenodd" clip-rule="evenodd" fill="#A91E2E" d="M1424.1,656.9c-2.8,2.6-6.5,4.2-10.6,4.2
			c-8.6,0-15.5-6.9-15.5-15.5c0-2.4,0.6-4.7,1.6-6.8l5.8,3.1c-0.5,1.1-0.8,2.4-0.8,3.7c0,4.9,4,8.9,8.9,8.9c2.4,0,4.6-0.9,6.2-2.5
			L1424.1,656.9z"/>
		<path fill-rule="evenodd" clip-rule="evenodd" fill="#F9EC29" d="M1413.3,629.8c8.6,0,15.5,6.9,15.5,15.5c0,2.4-0.5,4.6-1.5,6.6
			l-5.9-3.1c0.5-1.1,0.7-2.2,0.7-3.5c0-4.9-4-8.9-8.9-8.9c-2.3,0-4.4,0.9-6,2.3l-4.4-4.9C1405.6,631.3,1409.3,629.8,1413.3,629.8z"
			/>
	</g>
	<g>
		<g>
			<defs>
				<rect id="SVGID_3_" x="1572.6" y="598.6" width="134.1" height="91.2"/>
			</defs>
			<clipPath id="SVGID_4_">
				<use xlink:href="#SVGID_3_"  overflow="visible"/>
			</clipPath>
			<g clip-path="url(#SVGID_4_)">
				<g>
					<defs>
						<path id="SVGID_5_" d="M1710.7,684.7c0,3.7-3,6.6-6.6,6.6h-129c-3.7,0-6.6-3-6.6-6.6l0-80.8c0-3.7,3-6.6,6.6-6.6l129,0
							c3.7,0,6.6,3,6.6,6.6V684.7z"/>
					</defs>
					<clipPath id="SVGID_6_">
						<use xlink:href="#SVGID_5_"  overflow="visible"/>
					</clipPath>
					<g clip-path="url(#SVGID_6_)">
						<polygon fill-rule="evenodd" clip-rule="evenodd" fill="#2F368F" points="1567.3,596.4 1712,596.4 1712,692.2 1567.3,692.2 
							1567.3,596.4 						"/>
						<path fill-rule="evenodd" clip-rule="evenodd" fill="#FBED1F" d="M1639.6,611.9c15.8,0,28.7,12.8,28.7,28.7
							s-12.8,28.7-28.7,28.7s-28.7-12.8-28.7-28.7S1623.8,611.9,1639.6,611.9L1639.6,611.9z"/>
						<path fill-rule="evenodd" clip-rule="evenodd" fill="#EA2227" d="M1635.7,628.8c28.2,0,54.5,4.7,76.3,12.8v50.5h-144.7v-53.3
							C1587.4,632.5,1610.8,628.8,1635.7,628.8L1635.7,628.8z"/>
						<path fill-rule="evenodd" clip-rule="evenodd" fill="#FBED1F" d="M1635.7,643.3c28.2,0,54.5,4.7,76.3,12.8v36.1h-144.7v-38.8
							C1587.4,647,1610.8,643.3,1635.7,643.3L1635.7,643.3z"/>
						<g>
							<path fill="#2F368F" d="M1597.7,674.5l11.1-15.5h4.1l11.9,15.5h-4.4l-3.4-4.7h-12.1l-3.2,4.7H1597.7z M1606,668.2h9.8l-3-4.3
								c-0.9-1.3-1.6-2.4-2.1-3.2c-0.4,1-0.9,2-1.6,3L1606,668.2z"/>
							<path fill="#2F368F" d="M1641.2,674.5v-1.6c-1.6,1.3-3.9,1.9-6.7,1.9c-1.2,0-2.4-0.1-3.5-0.4c-1.1-0.3-1.9-0.6-2.4-1
								c-0.5-0.4-0.9-0.9-1.1-1.4c-0.1-0.4-0.2-1-0.2-1.8v-7h3.6v6.2c0,1,0.1,1.7,0.2,2c0.2,0.5,0.7,0.9,1.4,1.2
								c0.7,0.3,1.6,0.4,2.7,0.4c1.1,0,2.1-0.1,3-0.4c0.9-0.3,1.6-0.7,2-1.2c0.4-0.5,0.6-1.2,0.6-2.2v-6h3.6v11.2H1641.2z"/>
							<path fill="#2F368F" d="M1649.9,674.5v-11.2h3.2v1.7c0.8-0.8,1.6-1.3,2.3-1.6c0.7-0.3,1.5-0.4,2.3-0.4c1.2,0,2.4,0.2,3.7,0.6
								l-1.2,1.8c-0.9-0.3-1.7-0.4-2.6-0.4c-0.8,0-1.5,0.1-2.1,0.4c-0.6,0.3-1.1,0.6-1.3,1c-0.4,0.7-0.6,1.4-0.6,2.2v5.9H1649.9z"/>
							<path fill="#2F368F" d="M1677.1,673.1c-1.3,0.6-2.6,1-3.8,1.3c-1.2,0.2-2.5,0.4-3.9,0.4c-2.3,0-4.1-0.3-5.3-0.9
								c-1.2-0.6-1.9-1.4-1.9-2.3c0-0.5,0.2-1,0.7-1.5c0.5-0.5,1.1-0.8,1.8-1.1c0.8-0.3,1.6-0.5,2.6-0.6c0.7-0.1,1.8-0.2,3.2-0.3
								c2.9-0.2,5-0.4,6.3-0.7c0-0.3,0-0.4,0-0.5c0-0.8-0.3-1.3-1-1.6c-0.9-0.4-2.3-0.6-4.1-0.6c-1.7,0-2.9,0.2-3.7,0.5
								c-0.8,0.3-1.4,0.9-1.8,1.7l-3.5-0.3c0.3-0.8,0.8-1.4,1.6-1.9c0.7-0.5,1.8-0.9,3.1-1.1c1.4-0.3,3-0.4,4.8-0.4
								c1.8,0,3.3,0.1,4.4,0.3c1.1,0.2,1.9,0.5,2.5,0.9c0.5,0.3,0.9,0.8,1.1,1.3c0.1,0.3,0.2,0.9,0.2,1.8v2.5c0,1.8,0.1,2.9,0.2,3.4
								c0.1,0.5,0.5,0.9,0.9,1.3h-3.7C1677.5,674.1,1677.2,673.7,1677.1,673.1z M1676.8,668.9c-1.3,0.3-3.2,0.5-5.8,0.7
								c-1.5,0.1-2.5,0.2-3.1,0.4c-0.6,0.1-1.1,0.3-1.4,0.6c-0.3,0.3-0.5,0.6-0.5,0.9c0,0.5,0.4,0.9,1.1,1.3
								c0.7,0.3,1.8,0.5,3.2,0.5c1.4,0,2.6-0.2,3.7-0.5c1.1-0.3,1.8-0.8,2.4-1.3c0.4-0.4,0.6-1.1,0.6-1.9V668.9z"/>
						</g>
					</g>
				</g>
			</g>
		</g>
	</g>
	<g>
		<path fill-rule="evenodd" clip-rule="evenodd" fill="#070707" d="M1863.5,831.7c8-6.5,23.7-5.1,27.3,10.5
			c1.6,6.9,0.8,13.1-3.5,19.4c-3.7,5.1-9,7.4-15.1,8.1c-6.9,0.8-13.5-0.4-20.1-2.3c-0.8-0.2-1-0.5-1-1.3c0-17.6,0-35.2,0-52.8
			c0-0.8,0.2-1.1,1-1.1c3.3,0,6.7,0.1,10,0c1,0,1.2,0.3,1.2,1.2C1863.5,819.5,1863.5,825.5,1863.5,831.7z"/>
		<path fill-rule="evenodd" clip-rule="evenodd" fill="#E9242B" d="M1929.1,812.7c0,2-0.4,4-1.4,5.8c-5.2,10-10.3,19.9-15.5,29.9
			c-1.7,3.3-5.3,4.7-8.5,3.5c-3.2-1.2-4.9-4.6-4.1-8.2c2.6-10.9,5.2-21.8,7.8-32.8c1.1-4.7,5.2-8.5,9.7-9
			C1923.7,801.2,1929,806,1929.1,812.7z"/>
		<path fill-rule="evenodd" clip-rule="evenodd" fill="#070808" d="M1916.4,876.9c1.6-1.2,3.1-1.7,4.8-1.8c4.3-0.3,7.4,2.3,7.4,7.6
			c0.1,4.9,0,9.2,0,14.2c0,0.7-0.1,0.8-0.7,0.8c-1.4,0-2.4,0-3.9,0c-1,0-1.1-0.3-1.1-1.3c0-4.3,0-8.4,0-12.7c0-1,0.2-2.5-1.2-3.4
			c-1.5-0.7-3.3-0.5-4.2,0.4c-0.8,0.9-1,1.5-1.1,3c0,4.7,0,8.6,0,12.7c0,1.1-0.2,1.3-1.3,1.3c-1.3,0-2.1,0-3.6,0c-0.9,0-1-0.3-1-1.1
			c0-9.5,0-19,0-28.5c0-0.8,0.1-1.1,1-1.1c1.4,0,2.6,0,4,0c0.8,0,0.9,0.2,0.9,0.9C1916.4,870.9,1916.4,873.7,1916.4,876.9z"/>
		<path fill-rule="evenodd" clip-rule="evenodd" fill="#090A0B" d="M1883.2,895.6c-2.4,2.7-5.1,3-7.9,2.2c-2.8-0.7-4.6-3.1-4.8-6.1
			c-0.2-3.3,1.1-5.5,4-6.7c2.1-0.9,4.3-1.1,6.6-1c1.1,0.1,1.5-0.3,1.3-1.4c-0.2-1.6-1.1-2.5-2.7-2.5c-1.8-0.1-3.6,0.1-5.3,0.7
			c-1,0.3-1.3,0.1-1.6-0.9c-0.1-0.4-0.6-2.7-0.7-2.9c-0.4-1.3-0.2-0.7,2.6-1.4c2.6-0.6,5.3-0.8,7.9-0.1c3.3,1,5.5,3.5,5.6,7
			c0.1,4.8,0,9.5,0.1,14.3c0,0.6-0.2,0.7-0.8,0.8c-0.9,0-1.8,0-2.6,0C1883.7,897.7,1882.9,897.8,1883.2,895.6z M1882.4,890
			c0.1-0.4,0.4-1.3-0.5-1.7c-1.4-0.4-3-0.2-4.3,0.6c-1.5,0.8-1.5,3.2-0.1,4C1879.6,894,1881.8,893,1882.4,890z"/>
		<path fill-rule="evenodd" clip-rule="evenodd" fill="#0E0E0E" d="M1898.2,898.2c-2.1-0.1-4-0.5-5.9-1.1c-0.6-0.2-0.8-0.5-0.7-1.2
			c0.2-1.1,0.4-2.6,1.1-3.5c0.6-0.4,3.5,1.2,6.4,0.8c0.8-0.1,1.5-0.4,1.7-1.4c0.2-1-0.3-1.7-1.1-2.1c-1.2-0.5-2.4-1-3.6-1.5
			c-2.2-1-3.7-2.6-4-5.1c-0.4-3.3,0.9-5.9,4-7.2c3.1-1.3,6.3-1,9.4,0.2c0.4,0.2,0.5,0.4,0.4,0.8c0,0.2-0.2,1-0.1,0.8
			c0-0.2-0.5,3.1-1,3c-1.1-0.2-3-0.6-4.9-0.5c-0.7,0-1.3,0.4-1.5,1.1c-0.2,0.8,0.1,1.4,0.8,1.8c1.3,0.7,2.8,1.2,4.1,1.9
			c2.9,1.5,4.2,4,3.8,7c-0.5,3.3-3.2,5.7-7,6.1C1899.5,898.2,1898.9,898.2,1898.2,898.2z"/>
		<path fill-rule="evenodd" clip-rule="evenodd" fill="#0C0C0C" d="M1851.6,882.1c1.2-4.9,5.1-7.4,10.6-7c1.7,0.1,3.4,0.5,5.1,0.9
			c0.9,0.2,0.8,0.6,0.7,1.3c-0.1,1.2-0.3,2.8-1.1,3.4c-0.5,0.4-2.9-0.6-5.7-0.6c-1.8,0-3.1,0.9-3.5,2.7c-0.6,2.4-0.5,4.8-0.1,7.2
			c0.4,2.2,1.8,3.2,4.1,3.2c1.6,0,3-0.2,4.5-0.8c0.8-0.3,1,0,1.2,0.6c0.1,0.3,0.2,0.7,0.3,1c0.8,2.9,0.8,2.9-2.1,3.6
			c-2.2,0.5-4.4,0.7-6.6,0.3c-4.5-0.8-7.3-4.3-7.5-9.2C1851.2,888,1851,885.5,1851.6,882.1z"/>
		<path fill-rule="evenodd" clip-rule="evenodd" fill="#E9292B" d="M1900.4,869.5c-4.2,0-7.6-3.4-7.6-7.6c0-4.2,3.4-7.6,7.6-7.5
			c4.2,0,7.6,3.4,7.6,7.6C1908,866.2,1904.6,869.5,1900.4,869.5z"/>
		<path fill-rule="evenodd" clip-rule="evenodd" fill="#EFEFEF" stroke="#DCDCDB" stroke-width="0.25" stroke-miterlimit="10" d="
			M1863.4,845.4c0.2-3.5,2.4-6,5.7-6.7c3.6-0.8,6.9,0.4,8.5,3.4c2.5,4.5,1.9,9.5-0.2,13.3c-1.5,2.6-3.9,3.9-6.9,4.2
			c-2,0.2-3.9,0.1-5.8-0.4c-0.9-0.2-1.3-0.6-1.2-1.5"/>
	</g>
	<g>
		<polygon fill-rule="evenodd" clip-rule="evenodd" fill="#EE3424" points="2085.1,421.3 2111.8,448 2111.8,394.6 2085.1,421.3 		
			"/>
		<polygon fill-rule="evenodd" clip-rule="evenodd" fill="#EE3424" points="2111.8,448 2165.2,448 2138.5,421.3 2111.8,448 		"/>
		<polygon fill-rule="evenodd" clip-rule="evenodd" fill="#EE3424" points="2138.5,421.3 2165.2,394.6 2111.8,394.6 2138.5,421.3 		
			"/>
		<polygon fill-rule="evenodd" clip-rule="evenodd" fill="#EE3424" points="2165.2,394.6 2165.2,448 2191.9,421.3 2165.2,394.6 		
			"/>
	</g>
	<rect x="1630.5" y="428.6" fill="#FFFFFF" width="5" height="25.7"/>
	<rect x="1640.1" y="419" fill="#FFFFFF" width="8.2" height="35.3"/>
	<path fill="#FFFFFF" d="M1626,394.4c0,0,8.3-8.1,22.3-5.4c0,0,6.2,1,10.9,5.1c0,0,0.7,0.7,1.2,0.1c0,0,0.7-0.5-0.1-1.3
		c0,0-4.1-5.6-12-8.1c0,0-11-3.9-22.3,1.4c0,0-6.9,2.9-10.8,10.7c0,0-5.5,1.8-9.6,4.1c0,0-1.2,0.5-0.8,1.4c0,0,0.4,0.7,1.5,0.2
		c0,0,3.8-1.3,7.5-2.1c0,0-3,7.7,0.1,17.2c1.4,4.2,3.9,8.6,7.7,12.1c0,0,0.6,0.7,1.3,0.2c0,0,0.6-0.4,0.2-1.1c0,0-3.1-4.6-4.3-11.2
		c-1-5.3-0.5-12.7,3.2-18.6c0,0,14.1-2,26.2,2.6c0,0,20.5,6.7,15.3,19.1c0,0-1.5,4.3-7.1,8.2c0,0-0.9,0.6-0.4,1.3
		c0,0,0.4,0.6,1.4,0.2c0,0,8.7-2.8,12.4-9.8c0,0,7.6-11.6-10.3-21c0,0-4.9-2.6-11.2-4C1648.2,395.6,1636.8,392.8,1626,394.4"/>
	<path fill-rule="evenodd" clip-rule="evenodd" fill="#273679" d="M1359.1,389.3h65.9c4.6,0,8.4,1.6,11.6,4.8
		c3.3,3.2,4.9,7.1,4.9,11.7v65.8c0,4.5-1.6,8.4-4.9,11.6c-3.1,3.1-7,4.8-11.6,4.8h-65.9c-4.6,0-8.5-1.6-11.7-4.8
		c-3.1-3.2-4.8-7.1-4.8-11.6v-65.8c0-4.6,1.6-8.5,4.8-11.7C1350.6,390.9,1354.5,389.3,1359.1,389.3L1359.1,389.3z"/>
	<path fill-rule="evenodd" clip-rule="evenodd" fill="#FBED1F" d="M1418.1,445.3h5.3l6.6-6.7h-7.2L1418.1,445.3L1418.1,445.3z
		 M1416.1,447h-7.7v14.3c0,3.8,1,6.7,2.8,8.5c1.7,1.6,3.8,2.4,6.6,2.4c3.8,0,6.7-1.5,8.4-4.5h0.1v3.9h6.8V447h-7.7v14.4
		c0,0.6-0.1,1.2-0.2,1.5c-0.9,2.1-2.4,3.2-4.7,3.2c-3,0-4.5-2.1-4.5-6.2V447L1416.1,447z M1396.5,455.1c-5,0-8.9,0.8-11.5,2.4
		c-2.7,1.6-4.1,4.1-4.1,7.2c0,1.9,0.8,3.7,2.2,5.2c1.6,1.5,3.7,2.3,6.2,2.3c3.4,0,5.9-1.1,7.7-3.1h0.2v2.6h7v-14.5
		c0-3.3-0.9-5.8-2.5-7.6c-2-2.1-5-3.2-8.9-3.2c-4,0-7.4,0.8-10,2.4l1.4,4.8c2.1-1.3,4.6-1.9,7.3-1.9c3.4,0,5,1.1,5,3.3V455.1
		L1396.5,455.1z M1377.8,447h-4.7v-8.4h-7.4v8.4h-3.5v5.7l3.5,0v9.9c0,3.4,0.6,5.9,2.1,7.4c1.4,1.5,3.5,2.3,6,2.3
		c1.6,0,2.9-0.2,4.1-0.6l-0.1-5.8c-0.3,0.2-0.7,0.3-1.4,0.3c-1.2,0-2.1-0.4-2.6-1.3c-0.4-0.6-0.6-1.8-0.6-3.4v-8.7h4.7V447
		L1377.8,447z M1387.9,464.1c0-2.9,3-4.3,8.7-4.2v2.6l-0.1,1.4c-0.3,0.9-1,1.8-1.9,2.3c-0.9,0.8-1.9,1.1-3.1,1.1
		C1389.2,467.4,1387.9,466.3,1387.9,464.1L1387.9,464.1z M1350.8,438.6v33h7.8v-33H1350.8L1350.8,438.6z"/>
	<g>
		<linearGradient id="SVGID_7_" gradientUnits="userSpaceOnUse" x1="1802.7251" y1="641.5996" x2="1976.728" y2="641.5996">
			<stop  offset="0" style="stop-color:#951C1F"/>
			<stop  offset="1" style="stop-color:#BE202E"/>
		</linearGradient>
		<path fill="url(#SVGID_7_)" d="M1976.7,604l-145-0.3c0,0-13.8-0.3-16.5,13.6c-2.6,13.8-12.5,61.9-12.5,61.9l144.2,0.3
			c0,0,13.6,0.3,16.5-12.8C1966.3,653.6,1976.7,604,1976.7,604z"/>
		<path id="hipercard_1_" fill-rule="evenodd" clip-rule="evenodd" fill="#FFFFFF" d="M1848.3,632.4c0.8-0.5,1.7-2.9,0.6-3.9
			c-0.4-0.3-0.9-0.4-1.8-0.3c-0.8,0.1-1.2,0.4-1.5,0.8c-0.5,0.7-0.9,2.6-0.2,3.3C1846.2,633.1,1847.8,632.8,1848.3,632.4z
			 M1837.5,628.5c-0.5,3.5-1.2,7-1.8,10.4c-3.9,0-7.9,0.2-11.7-0.1c0.7-3.4,1.2-6.9,1.9-10.3h-4.2c-1.5,8.6-2.9,17.3-4.6,25.7h4.3
			c0.7-4.3,1.3-8.7,2.2-12.8c3.7-0.1,8.1-0.2,11.6,0.1c-0.7,4.3-1.6,8.4-2.3,12.7h4.3c1.4-8.7,2.9-17.4,4.6-25.7H1837.5z
			 M1898.6,635.9c-3.4-1.4-6,0.9-7.2,3.1c0.3-1,0.4-2.1,0.6-3.1h-3.3c-0.8,6.3-2,12.3-3.2,18.3h3.8c0.5-3.6,0.8-8.4,1.9-11.8
			c0.9-2.7,3.4-5.1,7-3.8C1898.2,637.7,1898.5,636.9,1898.6,635.9z M1900.7,650c-0.4-0.9-0.4-2.4-0.4-3.5c0.2-2.5,1.1-5.6,2.6-7
			c2-1.9,5.9-1.6,9-0.5c0.1-1,0.3-2,0.4-3c-5.1-0.8-10-0.3-12.5,2.4c-2.5,2.6-4.2,8.7-3,12.5c1.4,4.5,7.5,4.7,12.4,3
			c0.2-0.9,0.3-1.9,0.5-2.8C1907.1,652.3,1901.9,653.1,1900.7,650z M1943.3,636c-3.3-1.7-6.1,1.1-7.2,2.8c0.3-0.9,0.3-2,0.6-2.9
			h-3.4c-0.9,6.3-2,12.4-3.3,18.3h3.9c0-2.4,0.5-4.2,0.9-6.6c0.8-5.1,2-10.7,7.9-9C1943,637.8,1943,636.8,1943.3,636z M1844.4,635.9
			c-0.1,0-0.1,0.1-0.1,0.3c-0.8,6.2-2,12.2-3.2,18.1h3.8c0.9-6.3,2-12.4,3.3-18.3H1844.4z M1877.7,635.6c-2.7,0.2-5.1,1-6.7,2.7
			c-2,2.1-3.6,6.8-3.2,11.1c0.7,6.1,8.3,5.9,14.4,4.4c0.1-1.1,0.4-2,0.5-3c-2.5,0.9-6.9,2.2-9.4,0.6c-1.9-1.2-2-4.3-1.3-7.1
			c4.1-0.1,8.3-0.1,12.4,0c0.3-1.9,1-4,0.4-5.9C1883.9,636,1880.8,635.4,1877.7,635.6z M1881.3,642.3h-8.9c0.3-2,2.1-4.3,5-4.4
			C1880.2,637.8,1882.1,638.9,1881.3,642.3z M1863.3,635.9c-3.2-1.2-7.1,0.2-8.8,1.6c0,0.1,0,0.1-0.1,0.1c0,0,0.1,0,0.1-0.1
			c0,0,0,0,0,0c0-0.6,0.2-1,0.3-1.6h-3.3c-1.4,9-3,17.8-4.7,26.5h3.8c0.5-3.4,0.9-7,1.7-10.1c0.9,3.3,6.5,2.7,8.9,1.4
			C1866.1,651.1,1869.9,638.4,1863.3,635.9z M1860.3,650.8c-2,2.1-7,2.1-7.4-1.5c-0.2-1.6,0.4-3.2,0.7-4.8c0.3-1.6,0.5-3.2,0.8-4.7
			c2-2.4,7.9-2.7,8.5,1.3C1863.4,644.7,1862,649.1,1860.3,650.8z M1957.4,628c-0.3,2.8-0.8,5.6-1.3,8.2c-9.3-2.9-15,3.9-14.9,12.3
			c0,1.6,0.3,3.3,1.3,4.4c1.8,2,6.8,2.5,9.3,0.8c0.5-0.3,1-0.9,1.3-1.3c0.2-0.3,0.6-1.1,0.7-0.9c-0.1,0.9-0.3,1.7-0.4,2.7h3.4
			c0.7-9.5,2.7-17.6,4.2-26.3H1957.4z M1948.9,652.3c-2.6,0.1-3.8-1.5-3.9-4.1c-0.1-4.6,1.9-9.7,6-10.1c1.9-0.2,3.3,0.2,4.7,0.7
			C1954.4,643.8,1954.9,652.1,1948.9,652.3z M1916.2,635.9c-0.2,1-0.5,2-0.7,3c2.2-0.6,9.2-2.3,9.9,0.7c0.2,1-0.2,2-0.4,2.8
			c-6.3-0.6-11.4,0.4-12.8,4.9c-0.9,3,0.1,6,2,6.8c3.7,1.6,8.2-0.2,9.8-2.7c-0.2,0.9-0.3,1.7-0.3,2.8h3.3c0-3.1,0.5-5.7,1-8.5
			c0.4-2.4,1.2-4.8,1.1-6.9C1928.7,634.1,1920.7,635.8,1916.2,635.9z M1922.4,650.8c-2,1.9-7.4,2.5-6.9-2.1c0.5-3.8,4.6-4.6,9.1-4.1
			C1924.3,646.7,1923.9,649.3,1922.4,650.8z"/>
	</g>
	<g>
		<g>
			<path fill="#231F20" d="M1597.3,868h8.4c1.7,0,2.9,0.1,3.7,0.2c0.8,0.1,1.5,0.4,2.2,0.9c0.6,0.4,1.2,1,1.6,1.8
				c0.4,0.7,0.6,1.5,0.6,2.5c0,1-0.3,1.9-0.8,2.7c-0.5,0.8-1.2,1.4-2.2,1.8c1.3,0.4,2.3,1,2.9,1.9c0.7,0.9,1,1.9,1,3.2
				c0,1-0.2,1.9-0.7,2.8c-0.4,0.9-1,1.6-1.8,2.2c-0.8,0.5-1.7,0.9-2.8,1c-0.7,0.1-2.4,0.1-5.1,0.1h-7.1V868z M1601.6,871.5v4.8h2.8
				c1.6,0,2.7,0,3.1-0.1c0.7-0.1,1.3-0.3,1.7-0.8c0.4-0.4,0.6-1,0.6-1.6c0-0.6-0.2-1.2-0.5-1.6c-0.4-0.4-0.9-0.7-1.6-0.7
				c-0.4,0-1.6-0.1-3.6-0.1H1601.6z M1601.6,879.8v5.6h3.9c1.5,0,2.5,0,2.9-0.1c0.6-0.1,1.1-0.4,1.5-0.8c0.4-0.4,0.6-1,0.6-1.8
				c0-0.6-0.2-1.2-0.5-1.6c-0.3-0.4-0.7-0.8-1.3-1c-0.6-0.2-1.8-0.3-3.8-0.3H1601.6z"/>
			<path fill="#231F20" d="M1617.5,881.1c0-1.3,0.3-2.6,1-3.9c0.7-1.3,1.6-2.2,2.8-2.9c1.2-0.7,2.6-1,4-1c2.3,0,4.2,0.7,5.6,2.2
				c1.5,1.5,2.2,3.4,2.2,5.7c0,2.3-0.7,4.2-2.2,5.7c-1.5,1.5-3.3,2.3-5.6,2.3c-1.4,0-2.7-0.3-4-0.9c-1.3-0.6-2.2-1.6-2.9-2.8
				C1617.8,884.4,1617.5,882.9,1617.5,881.1z M1621.6,881.3c0,1.5,0.4,2.7,1.1,3.5c0.7,0.8,1.6,1.2,2.6,1.2c1,0,1.9-0.4,2.6-1.2
				c0.7-0.8,1.1-2,1.1-3.5c0-1.5-0.4-2.6-1.1-3.4s-1.6-1.2-2.6-1.2c-1,0-1.9,0.4-2.6,1.2S1621.6,879.8,1621.6,881.3z"/>
			<path fill="#231F20" d="M1636.3,888.9v-21h4v21H1636.3z"/>
			<path fill="#231F20" d="M1653.3,884.1l4,0.7c-0.5,1.5-1.3,2.6-2.4,3.4c-1.1,0.8-2.5,1.2-4.2,1.2c-2.6,0-4.6-0.9-5.9-2.6
				c-1-1.4-1.5-3.1-1.5-5.2c0-2.5,0.7-4.5,2-5.9c1.3-1.4,3-2.1,5-2.1c2.3,0,4,0.7,5.4,2.2c1.3,1.5,1.9,3.8,1.9,6.9h-10.1
				c0,1.2,0.4,2.1,1,2.8c0.6,0.7,1.4,1,2.3,1c0.6,0,1.2-0.2,1.6-0.5C1652.7,885.4,1653,884.9,1653.3,884.1z M1653.5,880
				c0-1.2-0.3-2-0.9-2.7c-0.6-0.6-1.3-0.9-2.1-0.9c-0.9,0-1.6,0.3-2.2,1c-0.6,0.6-0.9,1.5-0.8,2.6H1653.5z"/>
			<path fill="#231F20" d="M1667.7,873.8v3.2h-2.7v6.1c0,1.2,0,2,0.1,2.2c0.1,0.2,0.2,0.4,0.4,0.5c0.2,0.1,0.4,0.2,0.7,0.2
				c0.4,0,0.9-0.1,1.6-0.4l0.3,3.1c-0.9,0.4-2,0.6-3.2,0.6c-0.7,0-1.4-0.1-2-0.4c-0.6-0.2-1-0.6-1.3-0.9c-0.3-0.4-0.5-0.9-0.6-1.6
				c-0.1-0.5-0.1-1.4-0.1-2.8V877h-1.8v-3.2h1.8v-3l4-2.3v5.4H1667.7z"/>
			<path fill="#231F20" d="M1669.6,881.1c0-1.3,0.3-2.6,1-3.9c0.7-1.3,1.6-2.2,2.8-2.9c1.2-0.7,2.6-1,4-1c2.3,0,4.2,0.7,5.6,2.2
				c1.5,1.5,2.2,3.4,2.2,5.7c0,2.3-0.7,4.2-2.2,5.7c-1.5,1.5-3.3,2.3-5.6,2.3c-1.4,0-2.7-0.3-4-0.9c-1.3-0.6-2.2-1.6-2.9-2.8
				C1669.9,884.4,1669.6,882.9,1669.6,881.1z M1673.7,881.3c0,1.5,0.4,2.7,1.1,3.5c0.7,0.8,1.6,1.2,2.6,1.2c1,0,1.9-0.4,2.6-1.2
				c0.7-0.8,1.1-2,1.1-3.5c0-1.5-0.4-2.6-1.1-3.4c-0.7-0.8-1.6-1.2-2.6-1.2c-1,0-1.9,0.4-2.6,1.2
				C1674.1,878.7,1673.7,879.8,1673.7,881.3z"/>
		</g>
		<rect x="1585.3" y="805" fill="#231F20" width="2.4" height="84.5"/>
		<rect x="1693.2" y="805" fill="#231F20" width="2.4" height="84.5"/>
		<rect x="1688.7" y="805" fill="#231F20" width="2.4" height="55.4"/>
		<rect x="1678.8" y="805" fill="#231F20" width="7" height="55.4"/>
		<rect x="1666.5" y="805" fill="#231F20" width="2.4" height="55.4"/>
		<rect x="1655.4" y="805" fill="#231F20" width="8.5" height="55.4"/>
		<rect x="1646.7" y="805" fill="#231F20" width="2.4" height="55.4"/>
		<rect x="1637.8" y="805" fill="#231F20" width="7.1" height="55.4"/>
		<rect x="1591.1" y="805" fill="#231F20" width="3.6" height="55.4"/>
		<rect x="1597.8" y="805" fill="#231F20" width="2.4" height="55.4"/>
		<rect x="1605.5" y="805" fill="#231F20" width="2.4" height="55.4"/>
		<rect x="1628.5" y="805" fill="#231F20" width="2.4" height="55.4"/>
		<rect x="1622.9" y="805" fill="#231F20" width="2.4" height="55.4"/>
		<rect x="1610.7" y="805" fill="#231F20" width="7.6" height="55.4"/>
		<rect x="1674.1" y="805" fill="#231F20" width="3.3" height="55.4"/>
	</g>
	<g>
		<g>
			<path fill="#060E9F" d="M2173,820.5c0-12.3-15.3-22.3-34.2-22.3s-34.2,10-34.2,22.3c0,0.3,0,1.2,0,1.3
				c0,13.1,13.4,23.6,34.2,23.6c20.9,0,34.2-10.6,34.2-23.6C2173,821.4,2173,821.1,2173,820.5z"/>
			<ellipse fill="#26AAE1" cx="2138.9" cy="820.5" rx="32.8" ry="21"/>
			<g>
				<path fill="#FFFFFF" d="M2128,813.9c0,0-0.3,0.4-0.1,0.6c0.5,0.7,2.1,1,3.7,0.7c1-0.2,2.2-1.2,3.4-2.2c1.3-1,2.6-2.1,3.9-2.5
					c1.4-0.4,2.2-0.3,2.8-0.1c0.6,0.2,1.4,0.6,2.6,1.5c2.3,1.7,11.3,9.6,12.8,10.9c1.3-0.6,6.8-3,14.4-4.7c-0.7-4-3.1-7.8-6.9-10.8
					c-5.2,2.2-11.6,3.3-17.8,0.3c0,0-3.4-1.6-6.7-1.5c-4.9,0.1-7.1,2.3-9.3,4.5L2128,813.9z"/>
				<path fill="#FFFFFF" d="M2156.7,823.8c-0.1-0.1-10.6-9.3-13-11.1c-1.4-1-2.1-1.3-3-1.4c-0.4-0.1-1,0-1.4,0.1
					c-1.1,0.3-2.6,1.3-3.8,2.3c-1.3,1.1-2.6,2.1-3.8,2.3c-1.5,0.3-3.3-0.1-4.1-0.6c-0.3-0.2-0.6-0.5-0.7-0.8
					c-0.3-0.7,0.3-1.3,0.4-1.4l2.9-3.1c0.3-0.3,0.7-0.7,1-1c-0.9,0.1-1.8,0.4-2.6,0.6c-1.1,0.3-2.1,0.6-3.1,0.6
					c-0.4,0-2.7-0.4-3.2-0.5c-2.6-0.7-4.9-1.4-8.4-3c-4.1,3.1-6.9,6.9-7.7,11.1c0.6,0.2,1.5,0.4,1.9,0.5c9.3,2.1,12.2,4.2,12.8,4.7
					c0.6-0.6,1.4-1,2.3-1c1,0,2,0.5,2.5,1.3c0.5-0.4,1.3-0.8,2.2-0.8c0.4,0,0.9,0.1,1.3,0.2c1.1,0.4,1.6,1.1,1.9,1.7
					c0.4-0.2,0.8-0.3,1.3-0.3c0.5,0,1,0.1,1.6,0.3c1.7,0.7,2,2.4,1.8,3.7c0.1,0,0.2,0,0.4,0c2,0,3.7,1.7,3.7,3.7
					c0,0.6-0.2,1.2-0.4,1.7c0.6,0.3,2,1,3.2,0.9c1-0.1,1.4-0.5,1.5-0.7c0.1-0.1,0.2-0.3,0.1-0.4l-2.6-2.9c0,0-0.4-0.4-0.3-0.6
					c0.1-0.2,0.4,0.1,0.6,0.2c1.3,1.1,3,2.8,3,2.8c0,0,0.1,0.2,0.7,0.3c0.5,0.1,1.4,0,2.1-0.5c0.2-0.1,0.3-0.3,0.5-0.5c0,0,0,0,0,0
					c0.7-0.9-0.1-1.7-0.1-1.7l-3.1-3.5c0,0-0.4-0.4-0.3-0.6c0.1-0.1,0.4,0.1,0.6,0.2c1,0.8,2.3,2.2,3.7,3.5c0.3,0.2,1.4,0.9,3-0.1
					c0.9-0.6,1.1-1.4,1.1-1.9c-0.1-0.8-0.7-1.3-0.7-1.3l-4.2-4.2c0,0-0.4-0.4-0.3-0.6c0.1-0.2,0.4,0.1,0.6,0.2c1.3,1.1,5,4.4,5,4.4
					c0.1,0,1.3,0.9,2.9-0.1c0.6-0.4,0.9-0.9,0.9-1.5C2157.5,824.5,2156.7,823.8,2156.7,823.8z"/>
				<path fill="#FFFFFF" d="M2136.3,829.2c-0.7,0-1.4,0.4-1.5,0.3c-0.1,0,0-0.3,0.1-0.4c0.1-0.1,0.9-2.7-1.2-3.6
					c-1.6-0.7-2.6,0.1-2.9,0.4c-0.1,0.1-0.1,0.1-0.1,0c0-0.5-0.2-1.7-1.6-2.1c-2-0.6-3.2,0.8-3.6,1.3c-0.1-1.1-1.1-2-2.3-2
					c-1.3,0-2.3,1-2.3,2.3c0,1.3,1,2.3,2.3,2.3c0.6,0,1.2-0.2,1.6-0.6c0,0,0,0,0,0.1c-0.1,0.6-0.3,2.6,1.9,3.5
					c0.9,0.3,1.6,0.1,2.2-0.3c0.2-0.1,0.2-0.1,0.2,0.1c-0.1,0.5,0,1.7,1.6,2.3c1.2,0.5,1.9,0,2.4-0.4c0.2-0.2,0.3-0.2,0.3,0.1
					c0.1,1.5,1.3,2.8,2.9,2.8c1.6,0,2.9-1.3,2.9-2.9C2139.2,830.5,2137.9,829.2,2136.3,829.2z"/>
			</g>
			<path fill="#060E9F" d="M2157.1,822.7c-3.2-2.8-10.7-9.3-12.8-10.9c-1.2-0.9-1.9-1.3-2.6-1.5c-0.3-0.1-0.7-0.2-1.3-0.2
				c-0.5,0-1.1,0.1-1.6,0.3c-1.3,0.4-2.6,1.5-3.9,2.5l-0.1,0.1c-1.2,0.9-2.4,1.9-3.3,2.1c-0.4,0.1-0.8,0.1-1.2,0.1
				c-1,0-2-0.3-2.3-0.7c-0.1-0.1,0-0.2,0.1-0.4l0,0l2.9-3.1c2.2-2.2,4.3-4.3,9.2-4.5c0.1,0,0.2,0,0.2,0c3,0,6,1.4,6.4,1.5
				c2.8,1.4,5.8,2.1,8.7,2.1c3.1,0,6.2-0.8,9.5-2.3c-0.4-0.3-0.8-0.6-1.2-0.9c-2.9,1.3-5.7,1.9-8.4,1.9c-2.7,0-5.5-0.7-8.1-2
				c-0.1-0.1-3.5-1.6-6.9-1.6c-0.1,0-0.2,0-0.3,0c-4.1,0.1-6.4,1.5-7.9,2.8c-1.5,0-2.8,0.4-4,0.7c-1,0.3-1.9,0.5-2.8,0.5
				c-0.4,0-1,0-1.1,0c-1,0-6-1.3-10-2.8c-0.4,0.3-0.8,0.6-1.2,0.9c4.2,1.7,9.2,3,10.9,3.1c0.4,0,0.9,0.1,1.4,0.1
				c1.1,0,2.1-0.3,3.1-0.6c0.6-0.2,1.3-0.4,2-0.5c-0.2,0.2-0.4,0.4-0.6,0.6l-2.9,3.1c-0.2,0.2-0.7,0.8-0.4,1.6
				c0.1,0.3,0.4,0.6,0.8,0.8c0.7,0.5,1.9,0.8,3.1,0.8c0.4,0,0.8,0,1.2-0.1c1.2-0.3,2.5-1.3,3.8-2.4c1.1-0.9,2.6-1.9,3.8-2.3
				c0.3-0.1,0.7-0.1,1-0.1c0.1,0,0.2,0,0.3,0c0.8,0.1,1.5,0.4,2.9,1.4c2.4,1.8,12.9,11,13,11.1c0,0,0.7,0.6,0.6,1.5
				c0,0.5-0.3,1-0.8,1.3c-0.4,0.3-0.9,0.4-1.4,0.4c-0.7,0-1.2-0.3-1.2-0.4c0,0-3.6-3.3-5-4.4c-0.2-0.2-0.4-0.3-0.6-0.3
				c-0.1,0-0.2,0-0.3,0.1c-0.2,0.3,0,0.6,0.3,0.8l4.2,4.2c0,0,0.5,0.5,0.6,1.1c0,0.7-0.3,1.3-1,1.7c-0.5,0.3-1,0.5-1.5,0.5
				c-0.6,0-1.1-0.3-1.2-0.4l-0.6-0.6c-1.1-1.1-2.2-2.2-3.1-2.9c-0.2-0.2-0.4-0.3-0.6-0.3c-0.1,0-0.2,0-0.3,0.1
				c-0.1,0.1-0.2,0.3,0.1,0.6c0.1,0.1,0.2,0.2,0.2,0.2l3.1,3.5c0,0,0.6,0.8,0.1,1.5l-0.1,0.1c-0.1,0.1-0.2,0.2-0.3,0.3
				c-0.5,0.4-1.2,0.5-1.5,0.5c-0.1,0-0.3,0-0.4,0c-0.3-0.1-0.5-0.1-0.6-0.3l0,0c-0.2-0.2-1.7-1.8-3-2.8c-0.2-0.1-0.4-0.3-0.6-0.3
				c-0.1,0-0.2,0-0.3,0.1c-0.3,0.3,0.1,0.7,0.3,0.8l2.6,2.9c0,0,0,0.1-0.1,0.2c-0.1,0.1-0.4,0.4-1.4,0.6c-0.1,0-0.2,0-0.3,0
				c-1,0-2-0.5-2.6-0.8c0.2-0.5,0.4-1.1,0.4-1.7c0-2.2-1.8-3.9-3.9-3.9c0,0-0.1,0-0.1,0c0.1-1-0.1-2.8-2-3.7
				c-0.5-0.2-1.1-0.4-1.6-0.4c-0.4,0-0.8,0.1-1.2,0.2c-0.4-0.8-1.1-1.3-1.9-1.6c-0.5-0.2-0.9-0.2-1.4-0.2c-0.8,0-1.5,0.2-2.2,0.7
				c-0.6-0.8-1.6-1.2-2.6-1.2c-0.9,0-1.7,0.3-2.3,1c-0.8-0.6-4.1-2.7-12.7-4.6c-0.4-0.1-1.4-0.4-2-0.5c-0.1,0.5-0.2,0.9-0.2,1.4
				c0,0,1.6,0.4,1.9,0.5c8.8,2,11.8,4,12.3,4.4c-0.2,0.4-0.3,0.8-0.3,1.3c0,1.8,1.5,3.3,3.3,3.3c0.2,0,0.4,0,0.6-0.1
				c0.3,1.3,1.2,2.4,2.5,2.9c0.4,0.2,0.8,0.2,1.2,0.2c0.3,0,0.5,0,0.8-0.1c0.2,0.6,0.8,1.4,2.1,1.9c0.4,0.2,0.9,0.3,1.3,0.3
				c0.3,0,0.7-0.1,1-0.2c0.6,1.5,2,2.4,3.6,2.4c1.1,0,2.1-0.4,2.8-1.2c0.6,0.4,2,1,3.3,1c0.2,0,0.3,0,0.5,0c1.3-0.2,2-0.7,2.2-1.1
				c0.1-0.1,0.1-0.1,0.1-0.2c0.3,0.1,0.7,0.2,1.1,0.2c0.7,0,1.4-0.2,2.1-0.8c0.7-0.5,1.2-1.2,1.3-1.8c0,0,0,0,0,0
				c0.2,0,0.5,0.1,0.7,0.1c0.8,0,1.5-0.2,2.2-0.7c1.4-0.9,1.6-2.1,1.6-2.8c0.2,0,0.5,0.1,0.7,0.1c0.7,0,1.4-0.2,2.1-0.6
				c0.8-0.5,1.4-1.4,1.4-2.3c0.1-0.7-0.1-1.3-0.5-1.9c2.3-1,7.5-2.9,13.6-4.3c0-0.5-0.1-0.9-0.2-1.4
				C2164.1,819.7,2158.5,822.1,2157.1,822.7z M2136.3,834.8c-1.4,0-2.6-1.1-2.7-2.6c0-0.1,0-0.4-0.3-0.4c-0.1,0-0.2,0.1-0.3,0.2
				c-0.3,0.3-0.7,0.6-1.3,0.6c-0.3,0-0.6-0.1-0.9-0.2c-1.5-0.6-1.5-1.7-1.5-2.1c0-0.1,0-0.2-0.1-0.3l-0.1-0.1h-0.1
				c-0.1,0-0.2,0-0.3,0.1c-0.4,0.3-0.9,0.5-1.3,0.5c-0.2,0-0.5,0-0.7-0.1c-2-0.8-1.8-2.7-1.8-3.2c0-0.1,0-0.2-0.1-0.3l-0.1-0.1
				l-0.1,0.1c-0.4,0.4-0.9,0.6-1.4,0.6c-1.2,0-2.1-0.9-2.1-2.1s0.9-2.1,2.1-2.1c1,0,1.9,0.8,2.1,1.8l0.1,0.6l0.3-0.5
				c0-0.1,0.9-1.3,2.4-1.3c0.3,0,0.6,0,0.9,0.1c1.2,0.4,1.4,1.5,1.5,2c0,0.3,0.2,0.3,0.3,0.3c0.1,0,0.2-0.1,0.2-0.1
				c0.2-0.2,0.7-0.6,1.5-0.6c0.4,0,0.8,0.1,1.2,0.3c2,0.8,1.1,3.3,1.1,3.4c-0.2,0.4-0.2,0.6,0,0.7l0.1,0h0.1c0.1,0,0.2,0,0.4-0.1
				c0.3-0.1,0.7-0.2,1-0.2h0c1.5,0,2.7,1.2,2.7,2.7C2139,833.6,2137.8,834.8,2136.3,834.8z"/>
		</g>
		<g>
			<path fill="#060E9F" d="M2190.8,858.8c-1.2-1.5-3.1-2.3-5.6-2.3c-2.5,0-4.4,0.8-5.6,2.3c-1.2,1.5-1.9,3.4-1.9,5.5
				c0,2.1,0.6,4,1.9,5.5c1.2,1.5,3.1,2.3,5.6,2.3c2.5,0,4.4-0.8,5.6-2.3s1.9-3.4,1.9-5.5C2192.6,862.2,2192,860.4,2190.8,858.8z
				 M2187.7,867.7c-0.6,0.8-1.5,1.2-2.6,1.2c-1.1,0-2-0.4-2.6-1.2c-0.6-0.8-0.9-1.9-0.9-3.4s0.3-2.6,0.9-3.4s1.5-1.2,2.6-1.2
				c1.1,0,2,0.4,2.6,1.2c0.6,0.8,0.9,1.9,0.9,3.4S2188.3,866.9,2187.7,867.7z"/>
			<path fill="#060E9F" d="M2159.3,857.5c-1.2-0.6-2.7-1-4.3-1c-2.5,0-4.2,0.6-5.2,1.9c-0.6,0.8-1,1.9-1.1,3.2h3.7
				c0.1-0.6,0.3-1,0.5-1.3c0.4-0.4,1-0.7,1.9-0.7c0.8,0,1.4,0.1,1.9,0.3c0.4,0.2,0.6,0.6,0.6,1.2c0,0.5-0.3,0.9-0.8,1.1
				c-0.3,0.1-0.8,0.2-1.5,0.3l-1.3,0.2c-1.5,0.2-2.6,0.5-3.4,0.9c-1.4,0.8-2.1,2.1-2.1,3.9c0,1.4,0.4,2.5,1.3,3.2
				c0.9,0.8,2,1.1,3.3,1.1c8.4,0.4,8.3-4.4,8.3-5.4v-5.5C2161.1,859.4,2160.5,858.2,2159.3,857.5z M2157.3,865.9
				c0,1.3-0.4,2.2-1.1,2.6c-0.7,0.5-1.5,0.7-2.3,0.7c-0.5,0-1-0.2-1.3-0.4c-0.4-0.3-0.6-0.8-0.6-1.4c0-0.7,0.3-1.3,0.9-1.6
				c0.4-0.2,0.9-0.4,1.8-0.5l0.9-0.2c0.4-0.1,0.8-0.2,1-0.3c0.3-0.1,0.5-0.2,0.7-0.4V865.9z"/>
			<path fill="#060E9F" d="M2140.2,859.9c1,0,1.7,0.3,2.1,0.9c0.3,0.4,0.5,0.9,0.6,1.5h4.1c-0.2-2.1-1-3.5-2.2-4.4
				c-1.2-0.8-2.8-1.2-4.7-1.2c-2.3,0-4.1,0.7-5.3,2.1c-1.3,1.4-1.9,3.3-1.9,5.8c0,2.2,0.6,4,1.8,5.4c1.2,1.4,3,2.1,5.5,2.1
				s4.4-0.8,5.6-2.5c0.8-1,1.2-2.1,1.3-3.3h-4.1c-0.1,0.8-0.3,1.4-0.7,1.9s-1.1,0.7-2,0.7c-1.3,0-2.2-0.6-2.7-1.8
				c-0.3-0.6-0.4-1.5-0.4-2.6c0-1.1,0.1-2,0.4-2.7C2137.9,860.5,2138.8,859.9,2140.2,859.9z"/>
			<path fill="#060E9F" d="M2131.7,856.6c-8.5,0-8,7.5-8,7.5v7.6h3.8v-7.1c0-1.2,0.1-2,0.4-2.6c0.5-1,1.6-1.5,3.1-1.5
				c0.1,0,0.3,0,0.5,0c0.2,0,0.4,0,0.6,0.1v-3.9c-0.2,0-0.3,0-0.3,0C2131.8,856.6,2131.8,856.6,2131.7,856.6z"/>
			<path fill="#060E9F" d="M2117.6,867.8c-0.2,0.2-0.3,0.4-0.5,0.6c-0.5,0.4-1.3,0.6-2.2,0.6c-0.8,0-1.5-0.1-2-0.5
				c-1-0.6-1.5-1.6-1.6-3.1h10.6c0-1.3,0-2.2-0.1-2.9c-0.2-1.1-0.6-2.2-1.2-3c-0.7-1-1.5-1.7-2.5-2.2c-1-0.5-2.2-0.7-3.4-0.7
				c-2.1,0-3.9,0.7-5.2,2c-1.3,1.4-2,3.3-2,5.8c0,2.7,0.7,4.7,2.2,5.8c1.5,1.2,3.2,1.8,5.1,1.8c2.4,0,4.2-0.7,5.5-2.1
				c0.7-0.7,1.1-1.5,1.3-2.2H2117.6z M2112.4,860.6c0.5-0.6,1.3-0.8,2.3-0.8c0.9,0,1.7,0.3,2.3,0.8c0.6,0.5,0.9,1.3,1,2.3h-6.6
				C2111.5,861.9,2111.9,861.2,2112.4,860.6z"/>
			<g>
				<path fill="#060E9F" d="M2105.9,871.8h-3.5v-8.8c0-0.8-0.3-2.7-2.6-2.7c-1.5,0-2.7,1.1-2.7,2.7v8.8h-3.5v-8.8
					c0-0.8-0.2-2.7-2.6-2.7c-1.6,0-2.7,1.1-2.7,2.7v8.8h-3.5V863c0-3.7,2.4-6.4,6.2-6.4c1.9,0,3.4,0.8,4.4,2c1-1.3,2.6-2,4.4-2
					c3.8,0,6.1,2.6,6.1,6.4V871.8z"/>
			</g>
			<path fill="#060E9F" d="M2176.6,852c0,0-3.9-0.4-3.9,2.7l0,4.1c-0.4-0.7-1-1.2-1.7-1.6c-0.7-0.4-1.5-0.6-2.4-0.6
				c-1.9,0-3.5,0.7-4.6,2.1c-1.1,1.4-1.7,3.5-1.7,6c0,2.2,0.6,3.9,1.7,5.3c1.2,1.4,3.5,2,5.5,2c7.1,0,7-6.1,7-6.1L2176.6,852z
				 M2171.9,867.7c-0.6,0.8-1.4,1.2-2.5,1.2c-1.1,0-1.9-0.4-2.4-1.2c-0.5-0.8-0.8-2-0.8-3.3c0-1.3,0.3-2.3,0.8-3.1
				c0.5-0.8,1.3-1.3,2.5-1.3c0.7,0,1.4,0.2,1.9,0.7c0.9,0.8,1.4,2.2,1.4,3.9C2172.8,865.9,2172.5,866.9,2171.9,867.7z"/>
		</g>
		<g>
			<path fill="#26AAE1" d="M2112.9,895c0,0.5-0.2,1-0.6,1.3c-0.4,0.4-0.8,0.6-1.4,0.6h-1.9v-13.4c0-2.6,0.9-4.2,2.3-5.3
				c1-0.7,2.4-1.4,5-1.4c1.8,0,3.9,0.7,5,2.1c1.3,1.6,1.8,3.3,1.8,5.6c0,2.3-0.6,4.2-1.7,5.7c-1.1,1.4-2.6,2.1-4.4,2.1
				c-0.9,0-1.8-0.2-2.5-0.5c-0.8-0.4-1.4-1-1.8-1.7V895z M2119.3,884.6c0-1.5-0.3-2.6-0.8-3.4c-0.6-0.8-1.4-1.2-2.4-1.2
				c-1,0-1.8,0.4-2.4,1.2c-0.5,0.7-0.8,1.8-0.8,3.4c0,1.4,0.3,2.5,0.8,3.2c0.6,0.8,1.4,1.2,2.4,1.2c1,0,1.8-0.4,2.3-1.2
				C2119,887,2119.3,885.9,2119.3,884.6"/>
			<path fill="#26AAE1" d="M2148.8,891v-0.9c-0.7,1-1.6,1.7-2.7,2c-1.1,0.3-2.3,0.2-3.4-0.3c-1.1-0.4-2.1-1.3-2.9-2.5
				c-0.8-1.2-1.2-2.8-1.2-4.8c0-2.3,0.5-4.2,1.6-5.6c1.1-1.4,2.8-2.1,5.1-2.2c2.3-0.1,3.6,0.5,4.9,1.5c1.4,1.1,2.3,2.8,2.3,5.4v7.9
				c0,2.5-1.7,7.2-7.2,6.8c-3.4-0.2-5.3-1.6-6.3-4.8h4.1c0.3,0.5,0.8,0.9,1.4,1.2c0.6,0.3,1.2,0.4,1.8,0.2c0.6-0.1,1.2-0.5,1.7-1.1
				C2148.4,893.1,2148.7,892.2,2148.8,891 M2142.4,884.6c0,2.6,0.7,4,2.2,4.3c1.5,0.3,2.6-0.1,3.3-1c0.3-0.4,0.6-1.1,0.7-1.9
				c0.1-0.9,0.2-1.7,0-2.6c-0.1-0.9-0.4-1.6-0.9-2.3c-0.5-0.7-1.2-1-2.1-1c-1.3,0-2.1,0.5-2.6,1.4
				C2142.6,882.3,2142.4,883.4,2142.4,884.6"/>
			<path fill="#26AAE1" d="M2135.3,877.8c-1.3-0.6-2.7-1-4.3-1c-2.5,0-4.2,0.6-5.2,1.9c-0.6,0.8-1,1.9-1.1,3.2h3.7
				c0.1-0.6,0.3-1,0.5-1.3c0.4-0.4,1-0.7,1.9-0.7c0.8,0,1.4,0.1,1.9,0.3c0.4,0.2,0.6,0.6,0.6,1.2c0,0.5-0.3,0.9-0.8,1.1
				c-0.3,0.1-0.8,0.2-1.5,0.3l-1.3,0.2c-1.5,0.2-2.6,0.5-3.4,0.9c-1.4,0.8-2.1,2.1-2.1,3.9c0,1.4,0.4,2.5,1.3,3.2
				c0.9,0.8,2,1.1,3.3,1.1c8.4,0.4,8.3-4.4,8.4-5.4v-5.5C2137.2,879.6,2136.6,878.4,2135.3,877.8 M2133.4,886.1
				c0,1.3-0.4,2.2-1.1,2.7c-0.7,0.5-1.5,0.7-2.3,0.7c-0.5,0-1-0.1-1.3-0.4c-0.4-0.3-0.6-0.8-0.6-1.4c0-0.7,0.3-1.3,0.9-1.6
				c0.4-0.2,0.9-0.4,1.8-0.5l0.9-0.2c0.4-0.1,0.8-0.2,1-0.3c0.3-0.1,0.5-0.2,0.7-0.4V886.1z"/>
			<path fill="#26AAE1" d="M2167.1,879c-1.2-1.6-3.1-2.3-5.6-2.3c-2.5,0-4.4,0.8-5.6,2.3c-1.2,1.5-1.9,3.4-1.9,5.5
				c0,2.1,0.6,4,1.9,5.5c1.2,1.5,3.1,2.3,5.6,2.3c2.5,0,4.4-0.8,5.6-2.3c1.2-1.5,1.9-3.4,1.9-5.5
				C2169,882.4,2168.3,880.5,2167.1,879 M2164,887.9c-0.6,0.8-1.5,1.2-2.6,1.2s-2-0.4-2.6-1.2c-0.6-0.8-0.9-1.9-0.9-3.4
				c0-1.5,0.3-2.6,0.9-3.4c0.6-0.8,1.5-1.2,2.6-1.2s2,0.4,2.6,1.2c0.6,0.8,0.9,1.9,0.9,3.4C2164.9,885.9,2164.6,887.1,2164,887.9"/>
		</g>
	</g>
	<path fill="#FFFFFF" d="M1681.4,480.7c-0.1-0.2-0.1-0.3-0.1-0.3c0,0-0.1,0.1-0.2,0.1c-0.4,0.2-1.1,0.5-2.1,0.5
		c-1.9,0-3.6-1.5-3.6-3.9c0-2.6,1.4-4,3.4-4c1.1,0,1.8,0.3,2.5,0.8c0.3-1.2,0.9-2.3,1.6-3.3c-0.3-0.2-0.7-0.5-1.4-0.8v0
		c-0.9-0.4-2-0.7-3.2-0.7c-4.3,0-7.5,2.9-7.5,7.9c0,5,3.3,7.8,7.5,7.8c2.1,0,3.6-0.7,3.6-0.7c0.3-0.1,0.9-0.4,1.1-0.5
		C1682.1,482.5,1681.6,481.2,1681.4,480.7"/>
	<path fill="#FFFFFF" d="M1583.6,464.5h8.4c3.2,0,5.6,1.6,5.6,5.1c0,2.5-1.1,4-3.1,4.7v0.1c2.3,0.6,3.5,2,3.5,4.4
		c0,4.8-3.7,5.8-6.8,5.8h-7.7V464.5L1583.6,464.5z M1588.2,480.8h1.8c1.7,0,3.5-0.3,3.5-2.3c0-2.2-1.8-2.4-3.4-2.4h-1.8V480.8
		L1588.2,480.8z M1588.2,472.5h1.7c1.5,0,3.1-0.4,3.1-2.1c0-1.8-1.5-2-3-2h-1.7V472.5L1588.2,472.5z"/>
	<path fill="#FFFFFF" d="M1640.5,484.6h-4.1v-2.3h0c-0.9,1.7-2.5,2.6-4.4,2.6c-3.8,0-5.9-3.7-5.9-8.1c0-3.7,2-7.6,5.5-7.6
		c1.8,0,3.3,0.5,4.4,2.3h0v-7.1h4.5V484.6L1640.5,484.6z M1633.3,481c1.5,0,2.7-1.6,2.7-3.8c0-2.3-1.1-3.9-2.7-3.9
		c-1.7,0-2.7,1.7-2.7,3.7C1630.6,479.4,1631.6,481,1633.3,481"/>
	<path fill="#FFFFFF" d="M1686.7,477.1c0-5,3.3-7.9,7.5-7.9c4.3,0,7.5,2.9,7.5,7.9c0,5-3.3,7.9-7.5,7.9
		C1689.9,485,1686.7,482.1,1686.7,477.1 M1697.1,477.1c0-2.3-0.8-4.2-2.9-4.2s-2.9,2-2.9,4.2c0,2.2,0.8,4.2,2.9,4.2
		S1697.1,479.4,1697.1,477.1"/>
	<path fill="#FFFFFF" d="M1623.9,484.6c-0.2-1.2-0.2-2.4-0.2-3.5v-5.6c0-4.6-2.9-6.2-6.2-6.2c-1.9,0-3.5,0.3-5.1,1v3.5l0,0
		c1.2-0.8,2.7-1.1,4.1-1.1c1.6,0,2.9,0.5,3,2.6c-0.6-0.1-1.4-0.2-2.1-0.2c-2.4,0-6.7,0.6-6.7,5.1c0,3.3,2.3,4.7,4.8,4.7
		c1.7,0,3.1-0.8,4-2.3v2H1623.9L1623.9,484.6z M1619.5,479.9c-0.6,1-1.6,1.6-2.8,1.6c-1,0-1.8-0.6-1.8-1.6c0-1.4,1.2-2,2.7-2
		c0.7,0,1.3,0.1,1.9,0.1V479.9L1619.5,479.9z"/>
	<path fill="#FFFFFF" d="M1608.5,469.3c-1.9,0-3.1,1.2-3.8,3.1h0v-2.8h-4.1v15h4.5v-6.4c0-2.9,1.2-4.7,3.2-4.9
		c0.4,0,1.1,0.1,1.5,0.2v-4.2C1609.4,469.3,1608.9,469.3,1608.5,469.3"/>
	<path fill="#FFFFFF" d="M1656.2,477.7c0-4.5-1.7-8.4-6.5-8.4c-4,0-6.9,2.9-6.9,7.9c0,5,3.3,7.9,7.5,7.9c1.7,0,3.3-0.3,4.7-1v-3.7
		c-1.3,0.8-2.7,1.2-3.9,1.2c-2.2,0-3.6-0.8-3.8-2.9h8.9V477.7L1656.2,477.7z M1647.3,475.7c0.1-1.7,0.9-3.1,2.5-3.1
		c1.8,0,2.5,1.4,2.5,3.1H1647.3L1647.3,475.7z"/>
	<path fill="#FFFFFF" d="M1663.7,469.3c-2.6,0-5.5,1.4-5.5,4.9c0,5.4,6.4,3.6,6.4,6.2c0,1-0.9,1.2-1.8,1.2c-1.6,0-3.2-0.5-4.2-1v3.6
		c1.2,0.5,2.6,0.9,4.4,0.9c2.9,0,6-1,6-5c0-5.7-6.7-3.9-6.7-6.2c0-0.8,1.1-1.1,2.1-1c1,0,2.6,0.5,3.6,1.1v-3.7
		C1666.7,469.6,1665.2,469.3,1663.7,469.3"/>
	<path fill-rule="evenodd" clip-rule="evenodd" fill="#0060A9" d="M1796.3,473.9v11.2h8.6c2.1,0,7.2-0.2,7.2-5.5
		c0-2.9-0.9-4.9-4.3-5.3c0.4-0.1,0.8-0.2,1.1-0.3L1796.3,473.9L1796.3,473.9L1796.3,473.9z M1815.6,473.9l-3.4,11.2h4.3l1.1-3.8h4.6
		l1.1,3.8h4.6l-3.4-11.2h-4.1l1.2,4.8h-3.3l1.1-4.8H1815.6L1815.6,473.9L1815.6,473.9z M1828.8,473.9v11.2h3.7v-11.2H1828.8
		L1828.8,473.9L1828.8,473.9z M1832.6,473.9l4.7,11.2h5.1v-11.2h-3.7v5.1l-2.2-5.1H1832.6L1832.6,473.9L1832.6,473.9z M1844.2,473.9
		c0,0.8-0.1,1.7-0.1,2.7c0,5.2-0.2,9,6.5,9c3.8,0,6-1.5,6-6.2h-4.3c-0.1,1.4-0.1,3.6-1.7,3.6c-1.8,0-2.1-1.1-2.1-6.4
		c0-1,0-1.9,0.1-2.7L1844.2,473.9L1844.2,473.9L1844.2,473.9z M1858,473.9c-0.1,0.9-0.1,1.8-0.1,2.7c0,4.6,0,9,6.7,9
		c6.7,0,6.7-4.5,6.7-9c0-0.9,0-1.8-0.1-2.7l-4.5,0c0,0.8,0.1,1.6,0.1,2.7c0,4.5-0.3,6.4-2.2,6.4c-2,0-2.2-1.9-2.2-6.4
		c0-1,0-1.9,0.1-2.7H1858L1858,473.9L1858,473.9z M1876.1,473.9v11.2h6.5c6.8,0,6.4-6.1,6.4-8.7c0-0.9,0-1.7-0.1-2.5l-4.4,0
		c0.1,0.8,0.1,1.7,0.1,2.6c0,4.3-0.4,6-2.5,6h-1.7v-8.6H1876.1L1876.1,473.9L1876.1,473.9z M1890.7,473.9c-0.1,0.9-0.1,1.8-0.1,2.7
		c0,4.6,0,9,6.7,9c6.7,0,6.7-4.4,6.7-9c0-0.9,0-1.8-0.1-2.7l-4.5,0c0,0.8,0.1,1.7,0.1,2.7c0,4.5-0.3,6.4-2.2,6.4
		c-2,0-2.2-1.9-2.2-6.4c0-1,0-1.9,0.1-2.7H1890.7L1890.7,473.9L1890.7,473.9z M1908.5,473.9v11.2h8.6c2.1,0,7.2-0.2,7.2-5.5
		c0-2.9-0.9-4.9-4.3-5.3c0.4-0.1,0.8-0.2,1.2-0.3L1908.5,473.9L1908.5,473.9L1908.5,473.9z M1925.7,473.9v11.2h4.5v-11.2H1925.7
		L1925.7,473.9L1925.7,473.9z M1933.9,473.9c-0.2,1.1-0.9,1.9-1.8,1.8l-1.2,0l4.1,9.4h7.2l1.1-3.8h4.6l1.1,3.8l10.4,0
		c2.9,0,5.8-0.4,5.8-4.8c0-4.2-4.9-4.6-6.8-6.4l-5.9,0c1.2,3.9,8.1,4,8.1,6.7c0,1.2-0.6,1.9-1.9,1.9l-5.9,0l-2.6-8.6h-4.1l1.2,4.8
		h-3.3l1.1-4.8h-3.7l-3,9.7l-3-6.7c1.8-0.3,2.7-1.3,3-2.9L1933.9,473.9L1933.9,473.9L1933.9,473.9z M1966.7,473.9v11.2h4.4v-11.2
		H1966.7L1966.7,473.9L1966.7,473.9z M1973.6,473.9v11.2h9.5v-2.6h-5.1v-8.6H1973.6L1973.6,473.9L1973.6,473.9z M1802.6,475.9h0.7
		c2.6,0,3.4,1.1,3.4,3c0,2.9-2.4,3-3.5,3h-1.6V476L1802.6,475.9L1802.6,475.9L1802.6,475.9z M1915.1,476h1.1c2.1,0,2.7,1.1,2.7,3
		c0,2.9-2,3-2.9,3h-2.3V476L1915.1,476L1915.1,476L1915.1,476z"/>
	<path fill-rule="evenodd" clip-rule="evenodd" fill="#0060A9" d="M1808.8,473.9c1.9-0.7,2.8-2.3,2.8-4.3c0-4.5-3.1-5.4-6.7-5.4
		h-8.6v9.8H1808.8L1808.8,473.9L1808.8,473.9z M1819.2,473.9l0.5-2.3l0.6,2.3h4.1l-1.8-6h-5.2l-1.8,6H1819.2L1819.2,473.9
		L1819.2,473.9z M1832.5,473.9v-0.2l0.1,0.2h4l-2.5-6h-5.3v6H1832.5L1832.5,473.9L1832.5,473.9z M1842.4,473.9v-6h-3.7v6H1842.4
		L1842.4,473.9L1842.4,473.9z M1848.6,473.9c0.2-3.2,0.7-3.8,2-3.8c1.2,0,1.7,0.9,1.7,3.2h4.3c0.2-3.8-1.9-5.8-6.1-5.8
		c-5,0-6.1,2.6-6.3,6.4H1848.6L1848.6,473.9L1848.6,473.9z M1862.5,473.9c0.1-2.6,0.6-3.8,2.2-3.8c1.5,0,2,1.2,2.1,3.8h4.5
		c-0.2-3.5-1.3-6.4-6.6-6.4c-5.4,0-6.4,2.9-6.6,6.4L1862.5,473.9L1862.5,473.9L1862.5,473.9z M1880.4,473.9v-3.3h1.8
		c1.7,0,2.2,1.4,2.3,3.3l4.4,0c-0.3-3.8-1.8-6-6.1-6h-6.7v6H1880.4L1880.4,473.9L1880.4,473.9z M1895.1,473.9
		c0.2-2.6,0.6-3.7,2.1-3.7c1.5,0,2,1.1,2.2,3.7h4.5c-0.2-3.5-1.3-6.3-6.6-6.3c-5.4,0-6.4,2.8-6.6,6.3L1895.1,473.9L1895.1,473.9
		L1895.1,473.9z M1921.1,473.9c1.8-0.8,2.8-2.3,2.8-4.3c0-4.5-3.1-5.4-6.7-5.4h-8.6v9.8H1921.1L1921.1,473.9L1921.1,473.9z
		 M1930.1,473.9v-3.3h1.5c1.3,0,2.4,0.9,2.4,2.6c0,0.3,0,0.5-0.1,0.7l4.2,0c0.1-0.4,0.1-0.9,0.1-1.5c0-2.9-1.7-4.5-4.4-4.5h-8.2v6
		H1930.1L1930.1,473.9L1930.1,473.9z M1944.9,473.9l0.5-2.3l0.6,2.3h4.1l-1.8-6h-5.2l-1.8,6H1944.9L1944.9,473.9L1944.9,473.9z
		 M1958.3,473.9c-0.4-0.4-0.7-0.9-0.7-1.5c0-1.2,0.7-1.8,1.9-1.8h4v-2.6h-5.6c-4.6,0-5.7,2.1-5.7,4.8c0,0.4,0.1,0.8,0.2,1.2
		L1958.3,473.9L1958.3,473.9L1958.3,473.9z M1971,473.9v-6h-4.4v6H1971L1971,473.9L1971,473.9z M1977.9,473.9v-6h-4.4v6H1977.9
		L1977.9,473.9L1977.9,473.9z M1801.5,472.7v-5.4h1.9c1.7,0,2.9,1.1,2.9,2.7c0,2-1.6,2.7-2.7,2.7h-1.8L1801.5,472.7L1801.5,472.7
		L1801.5,472.7z M1913.8,472.8v-5.4h2.6c1.4,0,2.4,1.1,2.4,2.7c0,2-1.3,2.7-2.2,2.7h-1.4L1913.8,472.8L1913.8,472.8L1913.8,472.8z"
		/>
	<path fill-rule="evenodd" clip-rule="evenodd" fill="#0060A9" d="M1912.1,391.6l7.7,5.3l7.6-5.1l0-10.4L1912.1,391.6L1912.1,391.6
		L1912.1,391.6z M1867.4,446.7l-7.7-5.3l-7.7,5.3v10.2L1867.4,446.7L1867.4,446.7L1867.4,446.7z M1896.7,401.7l7.6,5.1l-35.9,24.3
		l22.2,15l10.4-7.1l-8.1-5.4l18.7-12.5l15.6,10.4l-37.8,25.2l-37.3-25L1896.7,401.7L1896.7,401.7L1896.7,401.7z M1882.5,436.2
		l-7.6-5.1l35.9-24.3l-22.2-15l-10.4,7.1l8.1,5.4l-18.7,12.5l-15.6-10.4l37.7-25.2l37.4,25.1L1882.5,436.2L1882.5,436.2
		L1882.5,436.2z"/>
	<g>
		<path fill-rule="evenodd" clip-rule="evenodd" fill="#231F20" d="M2113.9,469.1c0,0,0,8.9,0,8.9c0,1.1-1,2.1-2.2,2.1
			c-0.7,0-1.2,0-1.2,0v0.5l10.2,0v-0.5c0,0-0.5,0-1.2,0c-1.2,0-2.2-1-2.2-2.1v-9c0,0,0-9.3,0-10.8c0-1.1,1-2.1,2.2-2.1
			c0.7,0,1.2,0,1.2,0l0-0.5h-10.2v0.5c0,0,0.5,0,1.2,0c1.3,0,2.2,1,2.2,2.1c0,1.4,0,9.6,0,9.6h-12.1c0,0,0-8.2,0-9.6
			c0-1.1,1-2.1,2.2-2.1c0.7,0,1.2,0,1.2,0v-0.5H2095v0.4c0,0,0.5,0,1.2,0c1.3,0,2.2,1,2.2,2.1c0,1.4,0,10.8,0,10.8v9
			c0,1.1-1,2.1-2.2,2.1c-0.7,0-1.2,0-1.2,0v0.5h10.2v-0.5c0,0-0.5,0-1.2,0c-1.2,0-2.2-1-2.2-2.1c0,0,0-8.9,0-8.9H2113.9
			L2113.9,469.1z"/>
		<path fill-rule="evenodd" clip-rule="evenodd" fill="#231F20" d="M2138.1,474.1c0.1,1.5-0.8,3.7-2.1,4.8c-1.2,1.1-2.9,2-5.2,2
			c-2.6,0-4.9-1.4-5.7-1.7c-0.5-0.2-1.1-0.2-1.5,0.1c-0.5,0.3-0.7,0.7-0.8,1.6h-0.4v-8.6h0.4c0.3,2.7,1.6,4.2,2.4,5.1
			c1.3,1.4,3.6,2.3,5.9,1.9c1.8-0.3,3.8-2.3,3.6-4.7c-0.1-0.9-0.3-2.2-2.1-3.4c-1.1-0.8-2.8-1.8-4.3-2.8c-2-1.3-3.7-2.7-4.2-3.3
			c-0.6-0.7-1.5-1.8-1.5-3.5c0-1.5,0.6-3.1,1.7-4.3c1.2-1.1,2.8-2,5.1-2s4,1.2,4.6,1.5c0.6,0.3,1.2,0.2,1.6,0
			c0.4-0.2,0.6-0.5,0.7-1.4h0.4v8.2h-0.4c-0.4-2.6-1.5-4.6-2.3-5.4c-0.8-0.7-2.4-1.7-4.7-1.3c-2.2,0.4-3.3,1.4-3.5,3.2
			c-0.2,1.4,0.6,2.2,1,2.7c0.9,1,6.4,4.2,8.9,6.3C2136.9,470.4,2137.9,471.7,2138.1,474.1L2138.1,474.1z"/>
		<path fill-rule="evenodd" clip-rule="evenodd" fill="#231F20" d="M2154.2,467.9c4.4,1.5,5.7,4.7,4.9,7.9c-1,3.8-5.2,4.6-6.6,4.8
			c-0.6,0.1-2.2,0.1-3.8,0.1c-2.8,0-6.4,0-9.2,0v-0.5c0,0,0.8,0,1.5,0c0.9,0,2-0.8,2-2c0,0,0-18.7,0-19.8c0-1.2-1.1-2-2-2
			c-0.7,0-1.5,0-1.5,0v-0.5c2.5,0,6.2,0,8.8,0c2.1,0,3.3,0.2,4,0.4c1.3,0.2,4.9,1.3,5.8,4.7C2158.8,463.6,2157.4,466.9,2154.2,467.9
			L2154.2,467.9z M2146.2,467.2c1.2,0.3,4.8,0.4,6.2-0.5c2.2-1.4,2.9-3.6,2.5-5.6c-0.2-1.2-0.9-2.3-1.9-3c-2.1-1.5-5.2-1.3-6.8-0.8
			V467.2L2146.2,467.2z M2146.2,479.2c1.7,0.5,5,0.9,7.3-0.7c2.7-2,3.3-6.8-0.5-9.3c-1.6-1-5.4-0.9-6.7-0.6V479.2L2146.2,479.2z"/>
		<path fill-rule="evenodd" clip-rule="evenodd" fill="#231F20" d="M2182.4,456.1l0.4,8.4l-0.5,0c-0.2-2.1-1-3.6-2.1-4.6
			c-0.3-0.3-0.8-0.9-1.6-1.4c-1.3-0.8-3.3-1.6-5.6-1.2c-3.5,0.6-5.3,3-6.2,5.2c-1.1,2.8-1.8,7.5,0.1,11.4c1.5,3.2,4.5,4.6,6.8,4.9
			c1.9,0.3,6.2,0.2,9.5-4.2l0.5,0.3c-2.5,3.6-5.9,5.9-9.8,5.9c-4.9,0-8.1-2.8-9.5-4.4c-1.5-1.7-2.6-5-2.7-7.8c0-2.5,0.5-5.3,1.4-6.9
			c1.6-2.8,4.8-5.6,9.1-6c3.2-0.3,5.3,0.3,7.1,1.3c0.9,0.5,1.4,0.6,1.9,0.4c0.5-0.2,0.9-0.6,0.9-1.4H2182.4L2182.4,456.1z"/>
	</g>
	<g>
		<path fill="#2D8ACA" d="M1504.9,927c0,5.8-4.7,10.5-10.5,10.5H1291c-5.8,0-10.5-4.7-10.5-10.5V770.4c0-5.8,4.7-10.5,10.5-10.5
			h203.5c5.8,0,10.5,4.7,10.5,10.5V927z"/>
		<g>
			<polygon fill-rule="evenodd" clip-rule="evenodd" fill="#FFFFFF" points="1412.4,814.7 1400.9,794.5 1377,794.5 1390.4,815.9 
				1412.4,814.7 			"/>
			<polygon fill-rule="evenodd" clip-rule="evenodd" fill="#20C0F1" points="1390.4,815.9 1380.3,835.4 1389.3,837.2 1396.6,827.8 
				1406.7,828.2 1412.5,815 1412.4,814.7 1412.4,814.7 1390.4,815.9 1390.4,815.9 1390.4,815.9 			"/>
			<polygon fill-rule="evenodd" clip-rule="evenodd" fill="#FFFFFF" points="1429.8,845.3 1429.8,845.3 1429.8,845.2 1420,828 
				1396.2,827.9 1405.7,844.7 1406,845.3 1406,845.3 1429.8,845.3 			"/>
			<polygon fill-rule="evenodd" clip-rule="evenodd" fill="#FFFFFF" points="1396.3,846 1396.3,846 1396.3,846 1390.9,835.6 
				1380.3,835.4 1374.1,826.8 1360.4,826.7 1370.5,845.8 1372.9,845.8 1396.3,846 			"/>
			<polygon fill-rule="evenodd" clip-rule="evenodd" fill="#20C0F1" points="1364.8,864.9 1386.9,864.9 1391.8,856.1 1394.3,864.9 
				1418,864.9 1429.8,845.3 1406,845.3 1395.6,861.7 1393.6,853.3 1397.1,846 1370.5,845.8 1370.5,845.8 1362.3,864.9 			"/>
			<g>
				<polygon fill="#FFFFFF" points="1440.7,870.7 1444.9,870.7 1444.9,892.7 1440.7,892.7 1440.7,870.7 				"/>
				<path fill="#FFFFFF" d="M1423.9,878.5h4.6v7.2c0,1.1,0.2,2,0.6,2.5c0.4,0.6,0.9,0.8,1.7,0.8c0.9,0,1.5-0.4,2-1.1
					c0.5-0.8,0.7-1.9,0.7-3.3v-6.1h4.6v14.3h-4.2v-2.7c-0.5,0.9-1.2,1.7-2.1,2.2c-0.8,0.5-1.8,0.7-2.8,0.7c-1.7,0-2.9-0.5-3.8-1.6
					c-0.9-1.1-1.3-2.6-1.3-4.7V878.5L1423.9,878.5z"/>
				<polygon fill="#FFFFFF" points="1402.6,878.2 1407.7,878.2 1407.7,892.7 1402.6,892.7 1402.6,878.2 				"/>
				<path fill="#FFFFFF" d="M1400.7,878.6l-0.3,4.1c-0.2-0.1-0.4-0.1-0.7-0.2c-0.3,0-0.6-0.1-0.9-0.1c-1.2,0-2.8,0.4-3.4,1.1
					c-0.6,0.7-0.9,1.8-0.9,3.2v5.9h-4.5v-13.9h4.6v2.7c0.5-1,1.2-1.8,1.9-2.3c0.8-0.5,1.7-0.7,2.7-0.7c0.3,0,0.7,0,1.5,0.1
					L1400.7,878.6L1400.7,878.6z"/>
				<path fill="#FFFFFF" d="M1387.5,884.5v8.2h-4.4v-7.2c0-1.1-0.2-2-0.5-2.5c-0.4-0.6-0.9-0.8-1.6-0.8c-0.8,0-1.4,0.3-1.9,1
					c-0.5,0.7-0.7,1.6-0.7,2.8v6.7h-4.4v-14.2h4v2.6c0.5-1,1.2-1.7,2-2.2c0.8-0.5,1.7-0.8,2.7-0.8c1.6,0,2.8,0.5,3.6,1.6
					C1387.1,880.9,1387.5,882.5,1387.5,884.5L1387.5,884.5z"/>
				<path fill="#FFFFFF" d="M1371.4,885.7v7h-4.3l-0.1-1.7c-0.6,0.8-1.3,1.4-2.1,1.8c-0.8,0.4-1.8,0.6-3,0.6c-1.5,0-2.6-0.4-3.5-1.2
					c-0.9-0.8-1.3-1.9-1.3-3.3c0-1.6,0.6-2.8,1.9-3.5c1.3-0.8,3.2-1.2,5.8-1.2h1.9V884c0-0.8-0.3-1.4-0.9-1.8
					c-0.6-0.4-1.5-0.6-2.6-0.6c-0.6,0-1.2,0.1-1.9,0.3c-0.7,0.2-1.5,0.5-2.3,0.9l-0.1-3.3c0.8-0.3,1.7-0.6,2.6-0.8
					c0.9-0.2,2-0.2,3.1-0.2c2.4,0,4.1,0.6,5.2,1.8S1371.4,883.2,1371.4,885.7L1371.4,885.7z M1366.1,886.6c-1.6,0-2.8,0.2-3.6,0.5
					c-0.7,0.3-1.1,0.9-1.1,1.7c0,0.6,0.2,1,0.6,1.4c0.4,0.3,0.9,0.5,1.5,0.5c1,0,1.9-0.3,2.5-1c0.6-0.7,1-1.6,1-2.6v-0.5H1366.1
					L1366.1,886.6z"/>
				<path fill="#FFFFFF" d="M1339.3,872.6h8.3c3.5,0,7.1,0.7,7.1,4.9c0,2.1-1.7,4.2-3.6,4.7c2.8,0.5,4.4,2.3,4.4,5.2
					c0,4.6-4.6,5.5-8.3,5.5h-7.9V872.6L1339.3,872.6z M1343.6,875.5v5h2.2c1.5,0,2.6-0.2,3.4-0.6c0.7-0.4,1.1-1.1,1.1-1.9
					c0-0.8-0.4-1.4-1-1.8c-0.7-0.4-1.7-0.6-3.1-0.6H1343.6L1343.6,875.5z M1343.6,884.1v5h2.8c1.5,0,2.5-0.2,3.3-0.7
					c0.8-0.4,1.1-1.1,1.1-1.9c0-0.8-0.3-1.4-1-1.9c-0.7-0.4-1.7-0.6-3.1-0.6H1343.6L1343.6,884.1z"/>
				<path fill-rule="evenodd" clip-rule="evenodd" fill="#FFFFFF" d="M1405.2,871.5c1.5,0,2.8,1.2,2.8,2.6s-1.2,2.6-2.8,2.6
					c-1.5,0-2.8-1.2-2.8-2.6S1403.6,871.5,1405.2,871.5L1405.2,871.5z"/>
				<path fill-rule="evenodd" clip-rule="evenodd" fill="#FFFFFF" d="M1409.3,891.4c0.8-0.8,1.6-1.6,2.5-2.4
					c0.9,1.5,5.8,2.3,5.8,0.1c0-2.6-8.1-0.7-7.4-6.3c0.4-3.3,4.1-4.3,5.9-4.3c1.9,0,3.6,0.5,4.9,1.7c-0.7,0.8-1.4,1.6-2.1,2.4
					c-0.4-0.6-4.6-1.9-5.1,0.1c-0.4,2,3.2,1.5,5.2,2.3c1.7,0.7,2.7,1.8,2.5,4c-0.3,2.9-2.6,4.6-6.3,4.6
					C1414,893.6,1411.3,893.2,1409.3,891.4L1409.3,891.4z"/>
			</g>
			<polyline fill-rule="evenodd" clip-rule="evenodd" fill="#2D8ACA" points="1384.4,869 1397.7,843.3 1406,845.3 1393.9,865.6 
				1388.5,865.6 			"/>
		</g>
	</g>
	<path fill-rule="evenodd" clip-rule="evenodd" fill="#241F20" d="M2088.8,654.3c2-6.2,4-12.4,5.4-18.9c1.1,0,2.4,0,3.6,0l-0.4,2.4
		c2.9-1.9,4.8-2.4,6.7-2.2c6.9,0.6,3.2,9.6-0.5,11.7c-2.1,1.3-5,1.8-9,1.3c-0.5,1.9-0.9,3.8-1.4,5.6
		C2091.8,654.3,2090.3,654.3,2088.8,654.3L2088.8,654.3z M2102.4,644.3c2.1-1.7,2-4.9,0.6-5.8c-1.4-0.9-4.6-0.2-5.7,2.4
		c-1,2.6-1.1,4.2-1.7,5.6C2096.8,646.4,2100.3,646,2102.4,644.3L2102.4,644.3z"/>
	<path fill-rule="evenodd" clip-rule="evenodd" fill="#241F20" d="M2122.4,649c-1.3,0-2.4,0-3.7,0l0.2-2.8c-2.7,2.5-7,4.2-8.9,1.8
		c-2.7-3.7-0.1-8.5,2.9-10.5c3.4-2.2,7.9-2.1,12.3-2.2C2123.6,639.8,2122.6,644.4,2122.4,649L2122.4,649z M2114.6,640
		c-1.8,1.7-1.8,4.9-0.5,5.8s4,0.2,4.9-2.4c0.9-2.6,1-4.2,1.5-5.6C2119.5,637.9,2116.4,638.3,2114.6,640L2114.6,640z"/>
	<path fill-rule="evenodd" clip-rule="evenodd" fill="#241F20" d="M2123.9,654.4l0.7-3.5c2.9,0.9,5.4,1.4,7.3,0.4
		c1.5-0.7,2.6-2.3,3.1-5.2c-2.7,2.5-7,4.2-8.9,1.8c-2.7-3.7-0.1-8.5,2.9-10.5c3.4-2.2,7.9-2.1,12.3-2.2c-1.4,3.8-1.4,9.9-3.3,14.2
		c-1,2.3-2.6,3.7-4.6,4.6C2130.6,655.3,2127,655.2,2123.9,654.4L2123.9,654.4z M2130.7,640c-1.8,1.7-1.8,4.9-0.5,5.8
		c1.2,0.9,4,0.2,4.9-2.4c0.9-2.6,1-4.2,1.5-5.6C2135.5,637.9,2132.5,638.3,2130.7,640L2130.7,640z"/>
	<path fill-rule="evenodd" clip-rule="evenodd" fill="#94C83D" d="M2168.2,654.4l0.6-3.5c2.9,0.9,5.4,1.4,7.3,0.4
		c1.5-0.7,2.5-2.3,3.1-5.2c-2.7,2.5-7,4.2-8.9,1.8c-2.7-3.7-0.1-8.5,2.9-10.5c3.4-2.2,7.9-2.1,12.3-2.2c-1.4,3.8-1.4,9.9-3.3,14.2
		c-1,2.3-2.6,3.7-4.6,4.6C2174.9,655.3,2171.4,655.2,2168.2,654.4L2168.2,654.4z M2218.1,641.1c-1.3,2.3-1.1,4.7,0.4,5.4
		c1.5,0.7,3.7-0.6,5-2.9c1.3-2.3,1.1-4.7-0.4-5.4C2221.6,637.6,2219.4,638.9,2218.1,641.1L2218.1,641.1z M2217,637.1
		c-3.9,2.6-5.5,7.1-3.5,9.9s6.8,3,10.7,0.4c3.9-2.6,5.5-7.1,3.5-9.9C2225.7,634.6,2220.9,634.5,2217,637.1L2217,637.1z
		 M2201.1,648.5c1.7-4.4,2.9-10,3.8-13.1h3.1l-0.1,2.8c1.4-1.9,3.8-2.9,6.3-2.8l-1.2,3.5c-3.1-0.4-5.3,2.1-6.5,6.2
		c-0.3,1-0.6,2.2-0.7,3.4L2201.1,648.5L2201.1,648.5z M2188.5,635.3c1.3,0,2.6,0.1,3.9,0.1c-0.7,2.9-1.8,5.6-2.5,8.5
		c-1,3.5,3.1,3.1,4.9,1c1.6-2.8,2.3-6.2,3.3-9.6c1.3,0,2.6,0,3.9,0c-1.5,4.5-2.7,9-3.3,13.4c-1.1-0.1-2.5-0.1-3.7-0.2
		c0-0.7,0.1-1.4,0.1-2.2c-3.9,3.6-10.3,4.5-9.5-1.5C2186.2,641.7,2187.5,638.5,2188.5,635.3L2188.5,635.3z M2166.5,645.8
		c-0.1,0.9-0.4,1.8-0.5,2.7c-4.2,0.6-8.6,1.5-11-1.7c-2.4-4.6,1.1-8.8,4.1-10.4c5.3-2.4,9-1.2,9.8,1.2c1.6,4.1-3.3,6.8-10.3,6
		C2157.8,647.2,2161.5,647.1,2166.5,645.8L2166.5,645.8z M2159.2,641.1c0.6-1.4,1.7-2.9,4-3.2c1.8-0.2,1.9,1.7,0.9,2.4
		C2162.2,641.1,2162,640,2159.2,641.1L2159.2,641.1z M2141.9,645.6c-0.4,0.9-0.9,1.9-1.3,2.8c5.2,1.1,9.3,0.5,10.9-1.2
		c1.5-1.9,1.3-4.1-1.4-5.6c-0.6-0.4-2.2-1.2-2.1-2.1c0.1-2.2,3.4-1.6,5.4-1l0.6-3c-1.4-0.3-3.2-0.4-4.6-0.3
		c-1.7,0.2-3.6,0.9-5.1,2.4c-1.1,1.2-1.4,2.8-1,3.7c0.5,1.2,2.1,1.6,2.9,2.1c1.4,0.6,2.2,1.1,2,2.1c-0.2,0.8-1.2,1.5-3,1.2
		C2144,646.5,2142.7,646.1,2141.9,645.6L2141.9,645.6z M2175,640c-1.8,1.7-1.8,4.9-0.5,5.8c1.2,0.9,4,0.2,4.9-2.4
		c0.9-2.6,1-4.2,1.5-5.6C2179.8,637.9,2176.8,638.3,2175,640L2175,640z"/>
	<path fill-rule="evenodd" clip-rule="evenodd" fill="#241F20" d="M2052.8,630.6c-1.3,1.6-2.4,3.4-3.1,5.3c-0.8,2-1.2,4.1-1.2,6.4
		c0,2.5,0.5,4.9,1.5,7.1c0.9,2.2,2.2,4.1,3.9,5.8c1.6,1.6,3.5,2.9,5.7,3.9c2.2,1,4.6,1.5,7.1,1.5c2.5,0,4.9-0.5,7.1-1.5
		c2.1-0.9,4.1-2.2,5.7-3.9c1.6-1.6,2.9-3.6,3.8-5.8c1-2.2,1.5-4.6,1.5-7.1c0-2.2-0.4-4.3-1.2-6.4c-0.8-2-1.8-3.7-3.1-5.3
		c-1.3-1.6-2.9-2.9-4.6-3.9c-2.8-1.6-5.6-2.5-8.9-2.5c-0.2,0-0.3,0-0.5,0c-3.2,0-6.2,0.9-9,2.5
		C2055.7,627.7,2054.1,629,2052.8,630.6L2052.8,630.6z"/>
	<path fill-rule="evenodd" clip-rule="evenodd" fill="#241F20" d="M2209.1,652.2c-0.7,0-1.3,0.1-1.9,0.3c-0.6,0.2-1.1,0.6-1.5,1
		c-0.4,0.4-0.8,0.9-1,1.5c-0.2,0.6-0.3,1.2-0.3,1.9c0,0.6,0.1,1.3,0.3,1.8c0.2,0.5,0.6,1.1,1,1.5c0.5,0.4,1,0.8,1.6,1
		c0.6,0.2,1.2,0.3,1.9,0.3c0.7,0,1.3-0.1,1.9-0.3c0.6-0.2,1.1-0.6,1.5-1c0.5-0.4,0.8-1,1-1.5c0.2-0.6,0.3-1.2,0.3-1.8
		c0-0.7-0.1-1.3-0.3-1.9c-0.2-0.6-0.5-1.1-1-1.5c-0.4-0.4-1-0.8-1.5-1C2210.4,652.3,2209.8,652.2,2209.1,652.2L2209.1,652.2z
		 M2209.1,655.2c0.5,0,0.8,0.1,1.1,0.5c0.3,0.3,0.4,0.7,0.4,1.2c0,0.5-0.1,0.9-0.4,1.2c-0.3,0.3-0.6,0.5-1.1,0.5
		c-0.5,0-0.8-0.1-1.1-0.5c-0.3-0.3-0.4-0.7-0.4-1.2c0-0.5,0.1-0.9,0.4-1.2C2208.3,655.3,2208.6,655.2,2209.1,655.2L2209.1,655.2z"/>
	<path fill-rule="evenodd" clip-rule="evenodd" fill="#241F20" d="M2202.8,658.8c0.1-0.4,0.1-1,0.1-1.6v-4.8h-3.2v4.9
		c0,0.5-0.1,0.9-0.2,1.2c-0.1,0.2-0.4,0.3-0.7,0.3c-0.3,0-0.5-0.1-0.7-0.3c-0.1-0.2-0.2-0.6-0.2-1.2v-4.9h-3.2v4.8
		c0,0.7,0,1.2,0.1,1.6c0.1,0.4,0.2,0.7,0.4,1c0.4,0.6,0.9,1,1.5,1.3c0.6,0.3,1.3,0.5,2.1,0.5c0.8,0,1.5-0.1,2.1-0.5
		c0.6-0.3,1.1-0.7,1.5-1.3C2202.6,659.6,2202.7,659.2,2202.8,658.8L2202.8,658.8z"/>
	<polygon fill-rule="evenodd" clip-rule="evenodd" fill="#241F20" points="2218.5,652.4 2215.2,652.4 2215.2,661.3 2221.6,661.3 
		2221.6,658.4 2218.5,658.4 2218.5,652.4 	"/>
	<path fill-rule="evenodd" clip-rule="evenodd" fill="#FAA919" d="M2078.7,630.7c-2.2-2.7-5.1-4.5-8.7-5.2c-3.5-0.7-6.9-0.1-10,1.6
		c-1.6,0.9-3,2-4.1,3.4c-1.1,1.4-2,2.9-2.6,4.7c-0.6,1.8-0.7,3.7-0.5,5.6c0.5-1.2,1.2-2.3,2.1-3.3c1.2-1.5,2.8-2.6,4.5-3.4
		c1.7-0.8,3.6-1.2,5.5-1.2c2,0,3.9,0.4,5.6,1.2c1.9,0.8,3.5,1.9,4.9,3.4c0.5,0.5,0.9,1.1,1.4,1.8c0.6,0,1.2,0,1.8,0.2
		c1.4,0.4,2.5,1.1,3.3,2.2l0-0.7c0.1-1.9,0-3.6-0.6-5.3C2080.8,633.8,2079.9,632.2,2078.7,630.7L2078.7,630.7z"/>
	<path fill-rule="evenodd" clip-rule="evenodd" fill="#FAA919" d="M2052.4,647.9c0.2,1.4,0.7,2.8,1.4,4.1c0.7,1.2,1.6,2.4,2.7,3.4
		l0.6,0.5c2,1.3,4.1,2.3,6.3,2.8c1.5,0.3,3,0.2,4.4-0.1c1.5-0.3,3-0.9,4.3-1.9c-1.2-0.3-2.3-0.9-3.2-1.9l-0.3-0.4
		c-1.8,0.2-3.6,0.1-5.4-0.2c-2.3-0.5-4.3-1.5-6.1-2.8c-1.8-1.3-3.2-3.1-4.4-5.1l-0.3-0.6C2052.3,646.3,2052.3,647.1,2052.4,647.9
		L2052.4,647.9z"/>
	<path fill-rule="evenodd" clip-rule="evenodd" fill="#EB3B24" d="M2069.4,635.9c-1.7-0.7-3.5-1-5.3-1c-1.8,0-3.5,0.4-5.1,1.2
		c-1.6,0.7-2.9,1.8-4.1,3.1c-0.8,1-1.5,2.1-1.9,3.2c0.3,1.4,0.9,2.8,1.6,4.1c1.1,1.9,2.5,3.4,4.3,4.7c1.7,1.2,3.7,2,5.8,2.5
		c1.3,0.2,2.6,0.3,4,0.3c-0.5-0.9-0.9-1.8-1-2.8c-0.2-1.1-0.1-2.1,0.1-3.2c0.2-1.4,0.8-2.7,1.5-3.9c0.8-1.2,1.8-2.3,3-3.2
		c0.8-0.6,1.6-1,2.4-1.3l-0.4-0.5C2072.7,637.7,2071.1,636.6,2069.4,635.9L2069.4,635.9z"/>
	<path fill-rule="evenodd" clip-rule="evenodd" fill="#F5871F" d="M2082.1,644l-0.4-0.7c-0.6,2.2-1.8,4.1-3.2,5.8
		c-0.3,1.4-0.9,2.7-1.7,3.9c-0.8,1.2-1.8,2.2-2.9,3.1c0.8,0,1.6-0.1,2.4-0.4c0.8-0.3,1.5-0.7,2.2-1.3c1-0.9,1.9-2,2.6-3.1l0.1-0.2
		c0.3-0.7,0.7-1.4,0.9-2.1c0.2-0.7,0.4-1.4,0.4-2.1c0-0.7,0-1.3-0.1-2C2082.4,644.7,2082.3,644.4,2082.1,644L2082.1,644z"/>
	<path fill-rule="evenodd" clip-rule="evenodd" fill="#F16522" d="M2050.7,635.6c-0.6,1.7-1,3.5-1,5.5c0,2.5,0.4,5,1.4,7.2
		c0.5,1.1,1,2.2,1.8,3.2c0.7,0.9,1.4,1.9,2.3,2.7c-1.9-2.1-3-4.4-3.3-7.1c-0.1-0.9-0.1-1.8,0-2.7c-0.6-1.7-1-3.4-1-5.2
		c0-1.7,0.3-3.3,0.8-5c0.4-1.1,1-2.2,1.6-3.2C2052.2,632.4,2051.4,634,2050.7,635.6L2050.7,635.6z"/>
	<path fill-rule="evenodd" clip-rule="evenodd" fill="#F16522" d="M2083.3,636.6c-0.4-1.4-1-2.7-1.7-4c-0.7-1.2-1.6-2.3-2.6-3.3
		c-0.9-1-2.1-1.9-3.3-2.6c1,0.7,2,1.6,2.9,2.5c1.3,1.5,2.3,3.1,3,5c0.6,1.9,0.9,3.8,0.8,5.8c0,0.6-0.1,1.2-0.2,1.8
		c0.2,0.4,0.5,0.9,0.7,1.3c0.5,1.4,0.6,2.9,0.3,4.3c0.7-2,1.1-4.2,1-6.4C2084,639.6,2083.7,638.1,2083.3,636.6L2083.3,636.6z"/>
	<path fill-rule="evenodd" clip-rule="evenodd" fill="#F16522" d="M2077.7,641.2c0.5,1,0.8,2.1,0.9,3.2c0.2,1.1,0.2,2.2,0.1,3.2
		l-0.2,1c1.4-1.7,2.4-3.5,3-5.7c-0.3-0.3-0.7-0.7-1.1-0.9C2079.6,641.4,2078.7,641.2,2077.7,641.2L2077.7,641.2z"/>
	<path fill-rule="evenodd" clip-rule="evenodd" fill="#EB3B24" d="M2074.8,653.7c0.6-0.8,1-1.7,1.4-2.6c-1.9,1.4-4,2.3-6.3,2.8
		c0.3,0.5,0.8,1,1.2,1.3c0.5,0.3,1,0.6,1.6,0.8C2073.5,655.3,2074.2,654.6,2074.8,653.7L2074.8,653.7z"/>
	<path fill-rule="evenodd" clip-rule="evenodd" fill="#EB3B24" d="M2065.2,658.8l2.1,0.1c1.8,0,3.4-0.4,5.1-0.9
		c1.5-0.5,3-1.2,4.3-2.1c-0.8,0.4-1.7,0.7-2.6,0.7c-0.3,0.1-0.6,0.1-0.9,0.1C2070.8,658.2,2068.1,658.9,2065.2,658.8L2065.2,658.8z"
		/>
	<path fill-rule="evenodd" clip-rule="evenodd" fill="#FCEA03" d="M2076.6,645c-0.3-1.2-0.7-2.4-1.3-3.5c-1.1,0.3-2.1,0.9-3,1.7
		c-1,0.8-1.8,1.8-2.4,2.9c-0.5,1.1-0.9,2.2-1,3.4c-0.1,1.1,0,2.1,0.3,3.1c0.1,0.3,0.2,0.6,0.4,0.9c1.2-0.1,2.3-0.5,3.4-0.9
		c1.1-0.4,2.2-1,3.2-1.8l0.1-0.1c0.2-0.7,0.3-1.4,0.4-2.1C2076.9,647.4,2076.8,646.2,2076.6,645L2076.6,645z"/>
	<g>
		<g>
			<path fill="#EFEFEF" stroke="#DCDCDB" stroke-width="0.25" stroke-miterlimit="10" d="M1504.9,1133.2c0,5.8-4.7,10.5-10.5,10.5
				H1291c-5.8,0-10.5-4.7-10.5-10.5V976.6c0-5.8,4.7-10.5,10.5-10.5h203.5c5.8,0,10.5,4.7,10.5,10.5V1133.2z"/>
			<g>
				<g>
					<path fill="#231F20" d="M1327.5,1074.8h8.5c1.9,0,3.4,0.1,4.4,0.4c1.4,0.4,2.5,1.1,3.5,2.1c1,1,1.7,2.3,2.2,3.7
						c0.5,1.5,0.8,3.3,0.8,5.5c0,1.9-0.2,3.5-0.7,4.9c-0.6,1.7-1.4,3-2.5,4.1c-0.8,0.8-1.9,1.4-3.3,1.8c-1,0.3-2.4,0.5-4.1,0.5h-8.8
						V1074.8z M1332.2,1078.8v15.3h3.5c1.3,0,2.2-0.1,2.8-0.2c0.8-0.2,1.4-0.5,1.9-1c0.5-0.4,0.9-1.2,1.2-2.2c0.3-1,0.5-2.4,0.5-4.2
						c0-1.8-0.2-3.2-0.5-4.1c-0.3-1-0.8-1.7-1.3-2.2c-0.6-0.5-1.3-0.9-2.2-1.1c-0.7-0.1-1.9-0.2-3.8-0.2H1332.2z"/>
					<path fill="#231F20" d="M1360.5,1092.6l4.4,0.7c-0.6,1.6-1.5,2.8-2.7,3.7c-1.2,0.8-2.8,1.3-4.6,1.3c-2.9,0-5.1-0.9-6.5-2.8
						c-1.1-1.5-1.7-3.4-1.7-5.8c0-2.8,0.7-4.9,2.2-6.5c1.4-1.6,3.3-2.4,5.5-2.4c2.5,0,4.5,0.8,5.9,2.5c1.4,1.6,2.1,4.2,2.1,7.6H1354
						c0,1.3,0.4,2.3,1.1,3.1c0.7,0.7,1.5,1.1,2.6,1.1c0.7,0,1.3-0.2,1.7-0.6C1359.9,1094.1,1360.2,1093.4,1360.5,1092.6z
						 M1360.7,1088.1c0-1.3-0.4-2.3-1-2.9c-0.6-0.7-1.4-1-2.3-1c-1,0-1.8,0.4-2.4,1.1c-0.6,0.7-0.9,1.7-0.9,2.9H1360.7z"/>
					<path fill="#231F20" d="M1368.6,1081.2h4.1v2.5c0.5-0.8,1.3-1.5,2.2-2c0.9-0.5,1.9-0.8,3-0.8c1.9,0,3.6,0.8,4.9,2.3
						c1.4,1.5,2,3.6,2,6.4c0,2.8-0.7,5-2,6.5s-3,2.3-5,2.3c-0.9,0-1.8-0.2-2.5-0.6s-1.5-1-2.4-1.9v8.4h-4.4V1081.2z M1373,1089.3
						c0,1.9,0.4,3.3,1.1,4.2c0.7,0.9,1.7,1.3,2.7,1.3c1,0,1.9-0.4,2.6-1.2s1-2.2,1-4.1c0-1.8-0.4-3.1-1.1-3.9
						c-0.7-0.8-1.6-1.3-2.6-1.3c-1.1,0-2,0.4-2.7,1.3C1373.3,1086.4,1373,1087.7,1373,1089.3z"/>
					<path fill="#231F20" d="M1387.4,1089.3c0-1.5,0.4-2.9,1.1-4.3c0.7-1.4,1.8-2.4,3.1-3.1c1.3-0.7,2.8-1.1,4.5-1.1
						c2.5,0,4.6,0.8,6.2,2.5c1.6,1.6,2.4,3.7,2.4,6.2c0,2.5-0.8,4.6-2.4,6.3c-1.6,1.7-3.7,2.5-6.2,2.5c-1.5,0-3-0.3-4.4-1
						c-1.4-0.7-2.4-1.7-3.2-3C1387.8,1092.9,1387.4,1091.3,1387.4,1089.3z M1391.9,1089.6c0,1.7,0.4,2.9,1.2,3.8
						c0.8,0.9,1.8,1.3,2.9,1.3c1.2,0,2.1-0.4,2.9-1.3c0.8-0.9,1.2-2.2,1.2-3.8c0-1.6-0.4-2.9-1.2-3.8c-0.8-0.9-1.8-1.3-2.9-1.3
						c-1.2,0-2.1,0.4-2.9,1.3C1392.3,1086.6,1391.9,1087.9,1391.9,1089.6z M1393.8,1079.2l2.2-4.7h5l-4.3,4.7H1393.8z"/>
					<path fill="#231F20" d="M1406.6,1093.2l4.4-0.7c0.2,0.9,0.6,1.5,1.2,2c0.6,0.4,1.4,0.7,2.4,0.7c1.1,0,2-0.2,2.6-0.6
						c0.4-0.3,0.6-0.7,0.6-1.2c0-0.3-0.1-0.6-0.3-0.8c-0.2-0.2-0.7-0.4-1.5-0.6c-3.6-0.8-5.8-1.5-6.8-2.2c-1.3-0.9-2-2.2-2-3.8
						c0-1.4,0.6-2.7,1.7-3.7s2.9-1.5,5.3-1.5c2.3,0,4,0.4,5.1,1.1c1.1,0.7,1.9,1.8,2.3,3.3l-4.2,0.8c-0.2-0.7-0.5-1.2-1-1.5
						c-0.5-0.3-1.2-0.5-2.1-0.5c-1.2,0-2,0.2-2.5,0.5c-0.3,0.2-0.5,0.5-0.5,0.9c0,0.3,0.1,0.6,0.4,0.8c0.4,0.3,1.8,0.7,4.1,1.2
						s4,1.2,4.9,2c0.9,0.8,1.4,1.9,1.4,3.3c0,1.5-0.6,2.8-1.9,4c-1.3,1.1-3.2,1.7-5.7,1.7c-2.3,0-4.1-0.5-5.4-1.4
						S1407,1094.7,1406.6,1093.2z"/>
					<path fill="#231F20" d="M1426,1078.9v-4.1h4.4v4.1H1426z M1426,1097.9v-16.7h4.4v16.7H1426z"/>
					<path fill="#231F20" d="M1442.7,1081.2v3.5h-3v6.7c0,1.4,0,2.2,0.1,2.4c0.1,0.2,0.2,0.4,0.4,0.6s0.5,0.2,0.7,0.2
						c0.4,0,1-0.1,1.8-0.4l0.4,3.4c-1,0.4-2.2,0.7-3.5,0.7c-0.8,0-1.5-0.1-2.2-0.4s-1.1-0.6-1.4-1c-0.3-0.4-0.5-1-0.6-1.7
						c-0.1-0.5-0.1-1.6-0.1-3.1v-7.3h-2v-3.5h2v-3.3l4.4-2.6v5.9H1442.7z"/>
					<path fill="#231F20" d="M1444.7,1089.3c0-1.5,0.4-2.9,1.1-4.3c0.7-1.4,1.8-2.4,3.1-3.1c1.3-0.7,2.8-1.1,4.5-1.1
						c2.5,0,4.6,0.8,6.2,2.5c1.6,1.6,2.4,3.7,2.4,6.2c0,2.5-0.8,4.6-2.4,6.3c-1.6,1.7-3.7,2.5-6.2,2.5c-1.5,0-3-0.3-4.4-1
						s-2.4-1.7-3.2-3C1445.1,1092.9,1444.7,1091.3,1444.7,1089.3z M1449.3,1089.6c0,1.7,0.4,2.9,1.2,3.8c0.8,0.9,1.8,1.3,2.9,1.3
						c1.2,0,2.1-0.4,2.9-1.3c0.8-0.9,1.2-2.2,1.2-3.8c0-1.6-0.4-2.9-1.2-3.8c-0.8-0.9-1.8-1.3-2.9-1.3c-1.2,0-2.1,0.4-2.9,1.3
						C1449.7,1086.6,1449.3,1087.9,1449.3,1089.6z"/>
				</g>
				<rect x="1310.9" y="1005.5" fill="#231F20" width="2.7" height="93"/>
				<rect x="1471.8" y="1005.5" fill="#231F20" width="2.7" height="93"/>
				<rect x="1424.9" y="1005.5" fill="#231F20" width="2.7" height="61"/>
				<rect x="1413.9" y="1005.5" fill="#231F20" width="7.7" height="61"/>
				<rect x="1400.4" y="1005.5" fill="#231F20" width="2.7" height="61"/>
				<rect x="1388.1" y="1005.5" fill="#231F20" width="9.3" height="61"/>
				<rect x="1378.6" y="1005.5" fill="#231F20" width="2.7" height="61"/>
				<rect x="1368.8" y="1005.5" fill="#231F20" width="7.8" height="61"/>
				<rect x="1317.4" y="1005.5" fill="#231F20" width="4" height="61"/>
				<rect x="1324.7" y="1005.5" fill="#231F20" width="2.7" height="61"/>
				<rect x="1333.2" y="1005.5" fill="#231F20" width="2.7" height="61"/>
				<rect x="1358.6" y="1005.5" fill="#231F20" width="2.7" height="61"/>
				<rect x="1352.3" y="1005.5" fill="#231F20" width="2.7" height="61"/>
				<rect x="1338.9" y="1005.5" fill="#231F20" width="8.3" height="61"/>
				<rect x="1408.8" y="1005.5" fill="#231F20" width="3.7" height="61"/>
				<rect x="1466.9" y="1005.5" fill="#231F20" width="2.7" height="61"/>
				<rect x="1455.9" y="1005.5" fill="#231F20" width="7.7" height="61"/>
				<rect x="1442.4" y="1005.5" fill="#231F20" width="2.7" height="61"/>
				<rect x="1430.2" y="1005.5" fill="#231F20" width="9.3" height="61"/>
				<rect x="1450.8" y="1005.5" fill="#231F20" width="3.7" height="61"/>
			</g>
		</g>
		<g>
			<path fill="#DCECCD" d="M2005.5,1133.2c0,5.8-4.7,10.5-10.5,10.5h-203.5c-5.8,0-10.5-4.7-10.5-10.5V976.6
				c0-5.8,4.7-10.5,10.5-10.5H1995c5.8,0,10.5,4.7,10.5,10.5V1133.2z"/>
			<g>
				<path fill="#0D375E" d="M1821.9,1040.5l-2.3,0.6l0.3,5.8l-15.2-8.6l14.1-12l0.4,5.7l38.7-6.6c-0.2-4.5-0.3-9-0.5-13.5
					c0-1-0.7-1.6-1.6-1.5c-17.7,3-35.3,5.7-53,8.1c-0.8,0.1-1.5,0.8-1.4,1.4c0.5,8.7,0.9,16.9,1.4,25.8c0,0.7,0.7,1.3,1.6,1.4
					c5.9,0.5,17.6,1.3,17.6,1.3L1821.9,1040.5z"/>
				<g>
					<path fill="#787878" d="M1825.2,1017.9L1825.2,1017.9c0.3,0,0.5,0,0.8,0l0,0l0,0l0,0
						C1825.7,1017.9,1825.4,1017.9,1825.2,1017.9L1825.2,1017.9L1825.2,1017.9z"/>
				</g>
				<path fill="#76B043" d="M1873.8,1033.5c0-0.9-0.7-1.6-1.5-1.4c-16.7,2.8-33.4,5.5-50.1,7.8c-0.8,0.1-1.4,0.7-1.4,1.4
					c0.1,2.4,0.4,7.2,0.4,7.2l22.7,1.6l-0.3-5.6l15.2,8.6l-14.1,11.3l-0.3-5.7l-22.7-0.9c0.2,3,0.3,6,0.5,9.1c0,0.7,0.7,1.3,1.5,1.3
					c16.7,1.4,33.4,2.5,50.1,3.4c0.8,0.1,1.4-0.7,1.4-1.6C1874.8,1057.8,1874.3,1045.6,1873.8,1033.5z"/>
				<path fill-rule="evenodd" clip-rule="evenodd" fill="#0D375E" d="M1879.5,1010.5h6.7c1.2,0,5.6,0.9,5.6,5.7v7.6h7.2
					c0,6.2,0.1,9.8-7.2,9.8v24.1c0,4.6,2.3,4.2,7.2,4.2v9.2c-4.2,0-8.3,0-12.5,0c-5.9,0-6.9-3.6-6.9-8.8V1010.5L1879.5,1010.5z
					 M1950.4,1023.8l10.3,29.5c3.1,6.9-1.1,8.9-8.6,8.6v9.3l8.4-0.1c7.2-0.1,10.4-5.9,12.3-12.2l12.3-36.9l-7-0.1
					c-3.3-0.1-5.2,1.6-5.9,4.9l-4.5,15.6l-5.4-18.4L1950.4,1023.8L1950.4,1023.8z M1927.5,1023.5c17.6-0.5,24.8,5.5,24.8,15.4
					l0,16.3c0,6.8-2.9,12.4-9.4,14.9c-4.3,1.6-14.6,1.5-19.2,0.4c-11.5-2.9-12.9-23.1,0.6-26.3c3.6-1.1,10.9-0.7,14.8-2.7
					c2.5-1.4,3.8-4.9,0.8-6.7c-1.1-0.7-2.6-1.1-4.2-1.3v0c-2.7-0.3-5.4-0.5-8.1-0.2C1927.4,1030,1927.5,1026.5,1927.5,1023.5
					L1927.5,1023.5z M1899.8,1049.3v21.8h12.3l0,0v-14.7l0,0c0-9.9-1-20.2,9.6-22.5c1.5-0.4,3-0.7,4.5-0.8v-9.6
					C1911.7,1023.7,1899.8,1029.1,1899.8,1049.3L1899.8,1049.3L1899.8,1049.3z M1943.1,1048.2c-3.6,1.8-8.4,2.1-12.3,2.6
					c-5.3,0.8-7.8,6.1-5.6,9.6c2.6,4.3,9.5,3.3,13.1,1C1943.7,1058,1943.1,1053.6,1943.1,1048.2z"/>
				<g>
					<path fill="#76B043" d="M1814.8,1098.2c-0.7,0.3-2.5,1.1-4.9,1.1c-4.8,0-8-3.5-8-8.5c0-5.3,3.6-8.9,8.6-8.9c2,0,3.7,0.6,4.4,1
						l-0.6,1.3c-0.8-0.5-2.1-1-3.9-1c-4.5,0-6.8,3.4-6.8,7.3c0,4.4,2.7,7.2,6.6,7.2c2,0,3.3-0.6,4.2-1L1814.8,1098.2z"/>
					<path fill="#76B043" d="M1825,1074.3h1.7v11h0.1c0.5-0.9,1.3-1.8,2.3-2.4c1-0.6,2.1-1,3.4-1c1.6,0,5.8,0.8,5.8,7v10h-1.7v-9.8
						c0-3-1.2-5.7-4.6-5.7c-2.4,0-4.3,1.7-5,3.7c-0.2,0.5-0.2,1-0.2,1.7v10.2h-1.7V1074.3z"/>
					<path fill="#76B043" d="M1850.1,1090.4c0,5.3,2.9,7.4,6.3,7.4c2.4,0,3.7-0.5,4.6-0.9l0.4,1.3c-0.6,0.3-2.3,1.1-5.2,1.1
						c-4.8,0-7.8-3.5-7.8-8.4c0-5.5,3.2-9,7.5-9c5.4,0,6.5,5.1,6.5,7.5c0,0.4,0,0.7-0.1,1H1850.1z M1860.7,1089.1
						c0-2.3-0.9-5.8-5-5.8c-3.7,0-5.2,3.3-5.5,5.8H1860.7z"/>
					<path fill="#76B043" d="M1884.3,1098.2c-0.7,0.3-2.5,1.1-4.9,1.1c-4.8,0-8-3.5-8-8.5c0-5.3,3.6-8.9,8.6-8.9c2,0,3.7,0.6,4.4,1
						l-0.6,1.3c-0.8-0.5-2.1-1-3.9-1c-4.5,0-6.8,3.4-6.8,7.3c0,4.4,2.7,7.2,6.6,7.2c2,0,3.3-0.6,4.2-1L1884.3,1098.2z"/>
					<path fill="#76B043" d="M1896.2,1090.3L1896.2,1090.3c0.5-0.5,1.1-1.3,1.7-1.8l5.9-6.2h2l-6.7,6.9l7.7,9.7h-2l-6.8-8.7
						l-1.7,1.8v6.9h-1.7v-24.6h1.7V1090.3z"/>
					<path fill="#76B043" d="M1922,1099.3c-4.3,0-7.6-3.4-7.6-8.6c0-5.7,3.7-8.8,7.9-8.8c4.6,0,7.7,3.5,7.7,8.6
						C1930,1096.6,1925.8,1099.3,1922,1099.3L1922,1099.3z M1922.2,1097.9c3.5,0,6.2-3.1,6.2-7.4c0-3.1-1.7-7.2-6.1-7.2
						c-4.3,0-6.2,3.8-6.2,7.3C1916.1,1094.8,1918.7,1097.9,1922.2,1097.9L1922.2,1097.9z"/>
					<path fill="#76B043" d="M1953.3,1094.8c0,1.5,0,2.8,0.1,4.1h-1.6l-0.1-3h-0.1c-0.8,1.6-2.7,3.4-5.7,3.4c-2.1,0-5.7-1.1-5.7-7.3
						v-9.7h1.7v9.4c0,3.6,1.1,6.2,4.4,6.2c2.4,0,4.2-1.7,4.9-3.4c0.2-0.5,0.3-1.2,0.3-1.8v-10.4h1.7V1094.8z"/>
					<path fill="#76B043" d="M1967.4,1078.6v3.7h4.8v1.3h-4.8v10.8c0,2.1,0.7,3.4,2.4,3.4c0.9,0,1.5-0.1,1.9-0.2l0.2,1.2
						c-0.6,0.2-1.3,0.4-2.3,0.4c-1.2,0-2.2-0.4-2.8-1.1c-0.8-0.9-1-2.3-1-4v-10.5h-2.8v-1.3h2.8v-3.1L1967.4,1078.6z"/>
				</g>
			</g>
		</g>
		<g>
			<path fill="#EFEFEF" stroke="#DCDCDB" stroke-width="0.25" stroke-miterlimit="10" d="M1754.1,1133.2c0,5.8-4.7,10.5-10.5,10.5
				h-203.5c-5.8,0-10.5-4.7-10.5-10.5V976.6c0-5.8,4.7-10.5,10.5-10.5h203.5c5.8,0,10.5,4.7,10.5,10.5V1133.2z"/>
			<g>
				<path fill-rule="evenodd" clip-rule="evenodd" fill="#F37421" d="M1585.6,1009.3l80.4-19.1c11.7-2.8,23.6,4.5,26.4,16.3
					l19.1,80.4c1.5,6.1,0.2,12.3-3.1,17.2h-122.9l-16.3-68.3C1566.6,1024,1573.9,1012.1,1585.6,1009.3L1585.6,1009.3z"/>
				<polygon fill="#FFFFFF" points="1585.5,1042.2 1585.5,1076.6 1593.3,1076.6 1593.3,1062.2 1606,1062.2 1606,1076.6 
					1613.8,1076.6 1613.8,1042.2 1606,1042.2 1606,1055.4 1593.3,1055.4 1593.3,1042.2 1585.5,1042.2 				"/>
				<path fill="#FFFFFF" d="M1680.9,1066.6c0.1-0.6,0.3-1.7,0.3-3.1c0-6.2-3.1-12.4-11.1-12.4c-8.7,0-12.6,7-12.6,13.3
					c0,7.8,4.8,12.7,13.3,12.7c3.4,0,6.5-0.5,9-1.5l-1-5.3c-2.1,0.7-4.2,1-6.9,1c-3.6,0-6.8-1.5-7-4.7H1680.9L1680.9,1066.6z
					 M1664.8,1061.3c0.2-2.1,1.5-5,4.8-5c3.6,0,4.4,3.2,4.4,5H1664.8L1664.8,1061.3z"/>
				<path fill="#FFFFFF" d="M1683.6,1076.6h7.7v-12.6c0-0.6,0.1-1.2,0.2-1.7c0.5-2.4,2.4-3.9,5.3-3.9c0.9,0,1.5,0.1,2.1,0.2v-7.3
					c-0.6-0.1-0.9-0.1-1.6-0.1c-2.4,0-5.5,1.5-6.7,5.2h-0.2l-0.3-4.6h-6.7c0.1,2.1,0.2,4.5,0.2,8.2V1076.6L1683.6,1076.6z"/>
				<path fill-rule="evenodd" clip-rule="evenodd" fill="#FFE700" d="M1621.7,1040.8c2.2,0,4,1.8,4,4c0,2.2-1.8,4-4,4
					c-2.2,0-4-1.8-4-4C1617.7,1042.6,1619.5,1040.8,1621.7,1040.8L1621.7,1040.8z"/>
				<path fill-rule="evenodd" clip-rule="evenodd" fill="#FFFFFF" d="M1638,1070.7h3.9c3.9,0,5.7-2.5,5.7-5.1c0-2.6-0.2-8.5-5-8.5
					c-5.5,0-4.6,7.3-4.6,11.2C1638,1069.1,1638,1069.9,1638,1070.7L1638,1070.7z M1617.7,1051.6h8v14c0,2.6,1.4,5.1,4.6,5.1
					c0-6.3,0-12.8-0.2-19.2h6.7c0.1,1.2,0.3,2.4,0.4,3.7c3.1-6.3,13.1-4.9,16.4,0.4c3.4,5.5,4.6,21.2-11.6,21.2h-3.8
					c0,3.2,0,6.4,0,9.6h-8c0-3.1,0-6.3,0-9.6c-8.6,0-12.6-5.5-12.6-11.2V1051.6L1617.7,1051.6z"/>
			</g>
		</g>
	</g>
</g>
</svg>
